<mxfile host="app.diagrams.net" agent="Mozilla/5.0 (Macintosh; Intel Mac OS X 10_15_7) AppleWebKit/605.1.15 (KHTML, like Gecko) Version/17.6 Safari/605.1.15" version="24.7.17">
  <diagram name="Page-1" id="-9zppOIPTw8OUFToroB6">
    <mxGraphModel dx="1194" dy="797" grid="1" gridSize="10" guides="1" tooltips="1" connect="1" arrows="1" fold="1" page="1" pageScale="1" pageWidth="827" pageHeight="1169" math="0" shadow="0">
      <root>
        <mxCell id="0" />
        <mxCell id="1" parent="0" />
        <mxCell id="0w6hp5Dj4LU8r-eOPLkV-1" value="vivero" style="rounded=0;whiteSpace=wrap;html=1;" parent="1" vertex="1">
          <mxGeometry x="406" y="78.72" width="90" height="40" as="geometry" />
        </mxCell>
        <mxCell id="0w6hp5Dj4LU8r-eOPLkV-2" value="zona" style="rounded=0;whiteSpace=wrap;html=1;" parent="1" vertex="1">
          <mxGeometry x="406" y="248.72" width="90" height="40" as="geometry" />
        </mxCell>
        <mxCell id="0w6hp5Dj4LU8r-eOPLkV-3" value="pertenece" style="rhombus;whiteSpace=wrap;html=1;" parent="1" vertex="1">
          <mxGeometry x="416" y="148.72" width="70" height="70" as="geometry" />
        </mxCell>
        <mxCell id="0w6hp5Dj4LU8r-eOPLkV-5" value="" style="endArrow=none;html=1;rounded=0;entryX=0.5;entryY=1;entryDx=0;entryDy=0;exitX=0.5;exitY=0;exitDx=0;exitDy=0;" parent="1" source="0w6hp5Dj4LU8r-eOPLkV-3" target="0w6hp5Dj4LU8r-eOPLkV-1" edge="1">
          <mxGeometry width="50" height="50" relative="1" as="geometry">
            <mxPoint x="446" y="408.72" as="sourcePoint" />
            <mxPoint x="496" y="358.72" as="targetPoint" />
          </mxGeometry>
        </mxCell>
        <mxCell id="0w6hp5Dj4LU8r-eOPLkV-6" value="" style="endArrow=none;html=1;rounded=0;entryX=0.5;entryY=1;entryDx=0;entryDy=0;exitX=0.5;exitY=0;exitDx=0;exitDy=0;" parent="1" source="0w6hp5Dj4LU8r-eOPLkV-2" target="0w6hp5Dj4LU8r-eOPLkV-3" edge="1">
          <mxGeometry width="50" height="50" relative="1" as="geometry">
            <mxPoint x="446" y="138.72" as="sourcePoint" />
            <mxPoint x="446" y="98.72" as="targetPoint" />
          </mxGeometry>
        </mxCell>
        <mxCell id="0w6hp5Dj4LU8r-eOPLkV-7" value="(1,1)" style="text;html=1;align=center;verticalAlign=middle;whiteSpace=wrap;rounded=0;" parent="1" vertex="1">
          <mxGeometry x="448" y="118.72" width="40" height="20" as="geometry" />
        </mxCell>
        <mxCell id="0w6hp5Dj4LU8r-eOPLkV-8" value="(1,N)" style="text;html=1;align=center;verticalAlign=middle;whiteSpace=wrap;rounded=0;" parent="1" vertex="1">
          <mxGeometry x="449" y="228.72" width="40" height="20" as="geometry" />
        </mxCell>
        <mxCell id="0w6hp5Dj4LU8r-eOPLkV-9" value="georref" style="ellipse;whiteSpace=wrap;html=1;fillColor=none;" parent="1" vertex="1">
          <mxGeometry x="526" y="248.72" width="70" height="40" as="geometry" />
        </mxCell>
        <mxCell id="0w6hp5Dj4LU8r-eOPLkV-10" value="latitud" style="ellipse;whiteSpace=wrap;html=1;" parent="1" vertex="1">
          <mxGeometry x="626" y="278.72" width="70" height="40" as="geometry" />
        </mxCell>
        <mxCell id="0w6hp5Dj4LU8r-eOPLkV-11" value="longitud" style="ellipse;whiteSpace=wrap;html=1;" parent="1" vertex="1">
          <mxGeometry x="626" y="218.72" width="70" height="40" as="geometry" />
        </mxCell>
        <mxCell id="0w6hp5Dj4LU8r-eOPLkV-12" value="" style="endArrow=none;html=1;rounded=0;entryX=0;entryY=0.5;entryDx=0;entryDy=0;exitX=1;exitY=0.5;exitDx=0;exitDy=0;" parent="1" source="0w6hp5Dj4LU8r-eOPLkV-9" target="0w6hp5Dj4LU8r-eOPLkV-11" edge="1">
          <mxGeometry width="50" height="50" relative="1" as="geometry">
            <mxPoint x="446" y="138.72" as="sourcePoint" />
            <mxPoint x="446" y="98.72" as="targetPoint" />
          </mxGeometry>
        </mxCell>
        <mxCell id="0w6hp5Dj4LU8r-eOPLkV-13" value="" style="endArrow=none;html=1;rounded=0;exitX=0;exitY=0.5;exitDx=0;exitDy=0;entryX=1;entryY=0.5;entryDx=0;entryDy=0;" parent="1" source="0w6hp5Dj4LU8r-eOPLkV-10" target="0w6hp5Dj4LU8r-eOPLkV-9" edge="1">
          <mxGeometry width="50" height="50" relative="1" as="geometry">
            <mxPoint x="456" y="148.72" as="sourcePoint" />
            <mxPoint x="606" y="278.72" as="targetPoint" />
          </mxGeometry>
        </mxCell>
        <mxCell id="0w6hp5Dj4LU8r-eOPLkV-14" value="" style="endArrow=none;html=1;rounded=0;entryX=1;entryY=0.5;entryDx=0;entryDy=0;exitX=0;exitY=0.5;exitDx=0;exitDy=0;" parent="1" source="0w6hp5Dj4LU8r-eOPLkV-9" target="0w6hp5Dj4LU8r-eOPLkV-2" edge="1">
          <mxGeometry width="50" height="50" relative="1" as="geometry">
            <mxPoint x="466" y="158.72" as="sourcePoint" />
            <mxPoint x="466" y="118.72" as="targetPoint" />
          </mxGeometry>
        </mxCell>
        <mxCell id="0w6hp5Dj4LU8r-eOPLkV-17" value="trabaja" style="rhombus;whiteSpace=wrap;html=1;" parent="1" vertex="1">
          <mxGeometry x="296" y="238.72" width="70" height="60" as="geometry" />
        </mxCell>
        <mxCell id="0w6hp5Dj4LU8r-eOPLkV-18" value="empleado" style="rounded=0;whiteSpace=wrap;html=1;" parent="1" vertex="1">
          <mxGeometry x="110" y="250" width="90" height="40" as="geometry" />
        </mxCell>
        <mxCell id="0w6hp5Dj4LU8r-eOPLkV-19" value="" style="endArrow=none;html=1;rounded=0;entryX=1;entryY=0.5;entryDx=0;entryDy=0;exitX=0;exitY=0.5;exitDx=0;exitDy=0;" parent="1" source="0w6hp5Dj4LU8r-eOPLkV-2" target="0w6hp5Dj4LU8r-eOPLkV-17" edge="1">
          <mxGeometry width="50" height="50" relative="1" as="geometry">
            <mxPoint x="606" y="278.72" as="sourcePoint" />
            <mxPoint x="636" y="248.72" as="targetPoint" />
          </mxGeometry>
        </mxCell>
        <mxCell id="0w6hp5Dj4LU8r-eOPLkV-20" value="" style="endArrow=none;html=1;rounded=0;entryX=1;entryY=0.5;entryDx=0;entryDy=0;exitX=0;exitY=0.5;exitDx=0;exitDy=0;" parent="1" source="0w6hp5Dj4LU8r-eOPLkV-17" target="0w6hp5Dj4LU8r-eOPLkV-18" edge="1">
          <mxGeometry width="50" height="50" relative="1" as="geometry">
            <mxPoint x="560" y="290" as="sourcePoint" />
            <mxPoint x="590" y="260" as="targetPoint" />
          </mxGeometry>
        </mxCell>
        <mxCell id="0w6hp5Dj4LU8r-eOPLkV-21" value="(1,1)" style="text;html=1;align=center;verticalAlign=middle;whiteSpace=wrap;rounded=0;" parent="1" vertex="1">
          <mxGeometry x="370" y="248.72" width="40" height="20" as="geometry" />
        </mxCell>
        <mxCell id="0w6hp5Dj4LU8r-eOPLkV-22" value="(1,N)" style="text;html=1;align=center;verticalAlign=middle;whiteSpace=wrap;rounded=0;" parent="1" vertex="1">
          <mxGeometry x="197" y="250" width="40" height="20" as="geometry" />
        </mxCell>
        <mxCell id="0w6hp5Dj4LU8r-eOPLkV-25" value="" style="endArrow=none;html=1;rounded=0;entryX=0.5;entryY=1;entryDx=0;entryDy=0;exitX=0.5;exitY=0;exitDx=0;exitDy=0;" parent="1" source="0w6hp5Dj4LU8r-eOPLkV-18" target="lC7uilPUr1mDyN76dGJ_-85" edge="1">
          <mxGeometry width="50" height="50" relative="1" as="geometry">
            <mxPoint x="550" y="280" as="sourcePoint" />
            <mxPoint x="155" y="230" as="targetPoint" />
          </mxGeometry>
        </mxCell>
        <mxCell id="0w6hp5Dj4LU8r-eOPLkV-28" value="" style="endArrow=none;html=1;rounded=0;entryX=0.5;entryY=1;entryDx=0;entryDy=0;exitX=0.5;exitY=0;exitDx=0;exitDy=0;" parent="1" target="0w6hp5Dj4LU8r-eOPLkV-18" edge="1" source="0w6hp5Dj4LU8r-eOPLkV-38">
          <mxGeometry width="50" height="50" relative="1" as="geometry">
            <mxPoint x="155" y="320" as="sourcePoint" />
            <mxPoint x="165" y="230" as="targetPoint" />
          </mxGeometry>
        </mxCell>
        <mxCell id="0w6hp5Dj4LU8r-eOPLkV-30" value="" style="endArrow=none;html=1;rounded=0;exitX=0;exitY=0.5;exitDx=0;exitDy=0;entryX=1;entryY=0.5;entryDx=0;entryDy=0;" parent="1" source="0w6hp5Dj4LU8r-eOPLkV-18" target="0w6hp5Dj4LU8r-eOPLkV-31" edge="1">
          <mxGeometry width="50" height="50" relative="1" as="geometry">
            <mxPoint x="165" y="260" as="sourcePoint" />
            <mxPoint x="70" y="270" as="targetPoint" />
          </mxGeometry>
        </mxCell>
        <mxCell id="0w6hp5Dj4LU8r-eOPLkV-31" value="ID" style="ellipse;whiteSpace=wrap;html=1;fillColor=#99CCFF;" parent="1" vertex="1">
          <mxGeometry x="20" y="275" width="70" height="40" as="geometry" />
        </mxCell>
        <mxCell id="0w6hp5Dj4LU8r-eOPLkV-35" value="" style="endArrow=none;html=1;rounded=0;entryX=1;entryY=0.5;entryDx=0;entryDy=0;" parent="1" target="0w6hp5Dj4LU8r-eOPLkV-36" edge="1">
          <mxGeometry width="50" height="50" relative="1" as="geometry">
            <mxPoint x="110" y="270" as="sourcePoint" />
            <mxPoint x="70" y="215" as="targetPoint" />
          </mxGeometry>
        </mxCell>
        <mxCell id="0w6hp5Dj4LU8r-eOPLkV-36" value="nombre" style="ellipse;whiteSpace=wrap;html=1;" parent="1" vertex="1">
          <mxGeometry x="20" y="225" width="70" height="40" as="geometry" />
        </mxCell>
        <mxCell id="0w6hp5Dj4LU8r-eOPLkV-37" value="pedido" style="rounded=0;whiteSpace=wrap;html=1;" parent="1" vertex="1">
          <mxGeometry x="110" y="466.31" width="90" height="40" as="geometry" />
        </mxCell>
        <mxCell id="0w6hp5Dj4LU8r-eOPLkV-38" value="realiza" style="rhombus;whiteSpace=wrap;html=1;" parent="1" vertex="1">
          <mxGeometry x="120" y="366.31" width="70" height="70" as="geometry" />
        </mxCell>
        <mxCell id="0w6hp5Dj4LU8r-eOPLkV-40" value="" style="endArrow=none;html=1;rounded=0;entryX=0.5;entryY=0;entryDx=0;entryDy=0;" parent="1" target="0w6hp5Dj4LU8r-eOPLkV-37" edge="1">
          <mxGeometry width="50" height="50" relative="1" as="geometry">
            <mxPoint x="155" y="436.31" as="sourcePoint" />
            <mxPoint x="225" y="226.31" as="targetPoint" />
          </mxGeometry>
        </mxCell>
        <mxCell id="0w6hp5Dj4LU8r-eOPLkV-41" value="(0,N)" style="text;html=1;align=center;verticalAlign=middle;whiteSpace=wrap;rounded=0;" parent="1" vertex="1">
          <mxGeometry x="153" y="445.31" width="40" height="20" as="geometry" />
        </mxCell>
        <mxCell id="0w6hp5Dj4LU8r-eOPLkV-42" value="(1,1)" style="text;html=1;align=center;verticalAlign=middle;whiteSpace=wrap;rounded=0;" parent="1" vertex="1">
          <mxGeometry x="153" y="290" width="40" height="20" as="geometry" />
        </mxCell>
        <mxCell id="0w6hp5Dj4LU8r-eOPLkV-44" value="producto" style="rounded=0;whiteSpace=wrap;html=1;" parent="1" vertex="1">
          <mxGeometry x="406" y="465.03000000000003" width="90" height="40" as="geometry" />
        </mxCell>
        <mxCell id="0w6hp5Dj4LU8r-eOPLkV-45" value="asignado" style="rhombus;whiteSpace=wrap;html=1;" parent="1" vertex="1">
          <mxGeometry x="416" y="365.03000000000003" width="70" height="70" as="geometry" />
        </mxCell>
        <mxCell id="0w6hp5Dj4LU8r-eOPLkV-47" value="" style="endArrow=none;html=1;rounded=0;entryX=0.5;entryY=1;entryDx=0;entryDy=0;exitX=0.5;exitY=0;exitDx=0;exitDy=0;" parent="1" source="0w6hp5Dj4LU8r-eOPLkV-44" target="0w6hp5Dj4LU8r-eOPLkV-45" edge="1">
          <mxGeometry width="50" height="50" relative="1" as="geometry">
            <mxPoint x="221" y="375.03000000000003" as="sourcePoint" />
            <mxPoint x="221" y="345.03000000000003" as="targetPoint" />
          </mxGeometry>
        </mxCell>
        <mxCell id="0w6hp5Dj4LU8r-eOPLkV-48" value="" style="endArrow=none;html=1;rounded=0;entryX=0.5;entryY=1;entryDx=0;entryDy=0;exitX=0.5;exitY=0;exitDx=0;exitDy=0;" parent="1" source="0w6hp5Dj4LU8r-eOPLkV-45" target="0w6hp5Dj4LU8r-eOPLkV-2" edge="1">
          <mxGeometry width="50" height="50" relative="1" as="geometry">
            <mxPoint x="461" y="428.72" as="sourcePoint" />
            <mxPoint x="461" y="398.72" as="targetPoint" />
          </mxGeometry>
        </mxCell>
        <mxCell id="0w6hp5Dj4LU8r-eOPLkV-49" value="(1,N)" style="text;html=1;align=center;verticalAlign=middle;whiteSpace=wrap;rounded=0;" parent="1" vertex="1">
          <mxGeometry x="448" y="445.03000000000003" width="40" height="20" as="geometry" />
        </mxCell>
        <mxCell id="0w6hp5Dj4LU8r-eOPLkV-50" value="(1,1)" style="text;html=1;align=center;verticalAlign=middle;whiteSpace=wrap;rounded=0;" parent="1" vertex="1">
          <mxGeometry x="448" y="288.72" width="40" height="20" as="geometry" />
        </mxCell>
        <mxCell id="0w6hp5Dj4LU8r-eOPLkV-51" value="tiene" style="rhombus;whiteSpace=wrap;html=1;" parent="1" vertex="1">
          <mxGeometry x="296" y="450.03000000000003" width="70" height="70" as="geometry" />
        </mxCell>
        <mxCell id="0w6hp5Dj4LU8r-eOPLkV-55" value="" style="endArrow=none;html=1;rounded=0;entryX=0;entryY=0.5;entryDx=0;entryDy=0;exitX=1;exitY=0.5;exitDx=0;exitDy=0;" parent="1" source="0w6hp5Dj4LU8r-eOPLkV-37" target="0w6hp5Dj4LU8r-eOPLkV-51" edge="1">
          <mxGeometry width="50" height="50" relative="1" as="geometry">
            <mxPoint x="180" y="556.31" as="sourcePoint" />
            <mxPoint x="230" y="506.31" as="targetPoint" />
          </mxGeometry>
        </mxCell>
        <mxCell id="0w6hp5Dj4LU8r-eOPLkV-56" value="" style="endArrow=none;html=1;rounded=0;entryX=0;entryY=0.5;entryDx=0;entryDy=0;exitX=1;exitY=0.5;exitDx=0;exitDy=0;" parent="1" source="0w6hp5Dj4LU8r-eOPLkV-51" target="0w6hp5Dj4LU8r-eOPLkV-44" edge="1">
          <mxGeometry width="50" height="50" relative="1" as="geometry">
            <mxPoint x="266" y="495.03000000000003" as="sourcePoint" />
            <mxPoint x="306" y="495.03000000000003" as="targetPoint" />
          </mxGeometry>
        </mxCell>
        <mxCell id="0w6hp5Dj4LU8r-eOPLkV-57" value="(1,N)" style="text;html=1;align=center;verticalAlign=middle;whiteSpace=wrap;rounded=0;" parent="1" vertex="1">
          <mxGeometry x="370" y="464.03000000000003" width="40" height="20" as="geometry" />
        </mxCell>
        <mxCell id="0w6hp5Dj4LU8r-eOPLkV-58" value="(0,1)" style="text;html=1;align=center;verticalAlign=middle;whiteSpace=wrap;rounded=0;" parent="1" vertex="1">
          <mxGeometry x="196" y="466.31" width="40" height="20" as="geometry" />
        </mxCell>
        <mxCell id="0w6hp5Dj4LU8r-eOPLkV-60" value="cliente+" style="rounded=0;whiteSpace=wrap;html=1;" parent="1" vertex="1">
          <mxGeometry x="110" y="645.69" width="90" height="40" as="geometry" />
        </mxCell>
        <mxCell id="0w6hp5Dj4LU8r-eOPLkV-65" value="realiza" style="rhombus;whiteSpace=wrap;html=1;" parent="1" vertex="1">
          <mxGeometry x="120" y="535.69" width="70" height="70" as="geometry" />
        </mxCell>
        <mxCell id="0w6hp5Dj4LU8r-eOPLkV-66" value="" style="endArrow=none;html=1;rounded=0;exitX=0.5;exitY=1;exitDx=0;exitDy=0;entryX=0.5;entryY=0;entryDx=0;entryDy=0;" parent="1" source="0w6hp5Dj4LU8r-eOPLkV-65" target="0w6hp5Dj4LU8r-eOPLkV-60" edge="1">
          <mxGeometry width="50" height="50" relative="1" as="geometry">
            <mxPoint x="45" y="575.69" as="sourcePoint" />
            <mxPoint x="45" y="605.69" as="targetPoint" />
          </mxGeometry>
        </mxCell>
        <mxCell id="0w6hp5Dj4LU8r-eOPLkV-67" value="" style="endArrow=none;html=1;rounded=0;exitX=0.5;exitY=0;exitDx=0;exitDy=0;entryX=0.5;entryY=1;entryDx=0;entryDy=0;" parent="1" source="0w6hp5Dj4LU8r-eOPLkV-65" target="0w6hp5Dj4LU8r-eOPLkV-37" edge="1">
          <mxGeometry width="50" height="50" relative="1" as="geometry">
            <mxPoint x="250" y="566.31" as="sourcePoint" />
            <mxPoint x="300" y="516.31" as="targetPoint" />
            <Array as="points" />
          </mxGeometry>
        </mxCell>
        <mxCell id="0w6hp5Dj4LU8r-eOPLkV-68" value="(1,N)" style="text;html=1;align=center;verticalAlign=middle;whiteSpace=wrap;rounded=0;" parent="1" vertex="1">
          <mxGeometry x="153" y="507.56" width="40" height="20" as="geometry" />
        </mxCell>
        <mxCell id="0w6hp5Dj4LU8r-eOPLkV-70" value="(1,1)" style="text;html=1;align=center;verticalAlign=middle;whiteSpace=wrap;rounded=0;" parent="1" vertex="1">
          <mxGeometry x="151" y="625.69" width="40" height="20" as="geometry" />
        </mxCell>
        <mxCell id="0w6hp5Dj4LU8r-eOPLkV-72" value="stock" style="ellipse;whiteSpace=wrap;html=1;" parent="1" vertex="1">
          <mxGeometry x="526" y="425.03000000000003" width="70" height="40" as="geometry" />
        </mxCell>
        <mxCell id="0w6hp5Dj4LU8r-eOPLkV-73" value="" style="endArrow=none;html=1;rounded=0;exitX=0;exitY=0.5;exitDx=0;exitDy=0;entryX=1;entryY=0.5;entryDx=0;entryDy=0;" parent="1" source="0w6hp5Dj4LU8r-eOPLkV-72" target="0w6hp5Dj4LU8r-eOPLkV-44" edge="1">
          <mxGeometry width="50" height="50" relative="1" as="geometry">
            <mxPoint x="636" y="355.03000000000003" as="sourcePoint" />
            <mxPoint x="606" y="325.03000000000003" as="targetPoint" />
          </mxGeometry>
        </mxCell>
        <mxCell id="0w6hp5Dj4LU8r-eOPLkV-74" value="&lt;span style=&quot;color: rgba(0, 0, 0, 0); font-family: monospace; font-size: 0px; text-align: start; background-color: rgb(251, 251, 251);&quot;&gt;%3CmxGraphModel%3E%3Croot%3E%3CmxCell%20id%3D%220%22%2F%3E%3CmxCell%20id%3D%221%22%20parent%3D%220%22%2F%3E%3CmxCell%20id%3D%222%22%20value%3D%22longitud%22%20style%3D%22ellipse%3BwhiteSpace%3Dwrap%3Bhtml%3D1%3B%22%20vertex%3D%221%22%20parent%3D%221%22%3E%3CmxGeometry%20x%3D%22570%22%20y%3D%22220%22%20width%3D%2270%22%20height%3D%2240%22%20as%3D%22geometry%22%2F%3E%3C%2FmxCell%3E%3C%2Froot%3E%3C%2FmxGraphModel%3E&lt;/span&gt;" style="endArrow=none;html=1;rounded=0;entryX=0.5;entryY=1;entryDx=0;entryDy=0;exitX=0.5;exitY=0;exitDx=0;exitDy=0;" parent="1" source="lC7uilPUr1mDyN76dGJ_-169" target="0w6hp5Dj4LU8r-eOPLkV-17" edge="1">
          <mxGeometry width="50" height="50" relative="1" as="geometry">
            <mxPoint x="306" y="328.72" as="sourcePoint" />
            <mxPoint x="616" y="288.72" as="targetPoint" />
          </mxGeometry>
        </mxCell>
        <mxCell id="0w6hp5Dj4LU8r-eOPLkV-75" value="tarea" style="ellipse;whiteSpace=wrap;html=1;" parent="1" vertex="1">
          <mxGeometry x="296" y="177.72" width="70" height="40" as="geometry" />
        </mxCell>
        <mxCell id="0w6hp5Dj4LU8r-eOPLkV-81" value="fecha ingreso" style="ellipse;whiteSpace=wrap;html=1;" parent="1" vertex="1">
          <mxGeometry x="232" y="585.69" width="70" height="40" as="geometry" />
        </mxCell>
        <mxCell id="0w6hp5Dj4LU8r-eOPLkV-83" value="bonificacion" style="ellipse;whiteSpace=wrap;html=1;align=center;dashed=1;" parent="1" vertex="1">
          <mxGeometry x="228.5" y="645.69" width="70" height="40" as="geometry" />
        </mxCell>
        <mxCell id="0w6hp5Dj4LU8r-eOPLkV-84" value="num compras" style="ellipse;whiteSpace=wrap;html=1;" parent="1" vertex="1">
          <mxGeometry x="232" y="705.69" width="70" height="40" as="geometry" />
        </mxCell>
        <mxCell id="0w6hp5Dj4LU8r-eOPLkV-85" value="" style="endArrow=none;html=1;rounded=0;exitX=1;exitY=0.5;exitDx=0;exitDy=0;entryX=0;entryY=0;entryDx=0;entryDy=0;" parent="1" source="0w6hp5Dj4LU8r-eOPLkV-60" target="0w6hp5Dj4LU8r-eOPLkV-84" edge="1">
          <mxGeometry width="50" height="50" relative="1" as="geometry">
            <mxPoint x="165" y="615.69" as="sourcePoint" />
            <mxPoint x="210" y="665.69" as="targetPoint" />
          </mxGeometry>
        </mxCell>
        <mxCell id="0w6hp5Dj4LU8r-eOPLkV-86" value="" style="endArrow=none;html=1;rounded=0;exitX=1;exitY=0.5;exitDx=0;exitDy=0;entryX=0;entryY=0.5;entryDx=0;entryDy=0;" parent="1" source="0w6hp5Dj4LU8r-eOPLkV-60" target="0w6hp5Dj4LU8r-eOPLkV-83" edge="1">
          <mxGeometry width="50" height="50" relative="1" as="geometry">
            <mxPoint x="175" y="625.69" as="sourcePoint" />
            <mxPoint x="175" y="665.69" as="targetPoint" />
          </mxGeometry>
        </mxCell>
        <mxCell id="0w6hp5Dj4LU8r-eOPLkV-87" value="" style="endArrow=none;html=1;rounded=0;exitX=1;exitY=0.5;exitDx=0;exitDy=0;entryX=0;entryY=1;entryDx=0;entryDy=0;" parent="1" source="0w6hp5Dj4LU8r-eOPLkV-60" target="0w6hp5Dj4LU8r-eOPLkV-81" edge="1">
          <mxGeometry width="50" height="50" relative="1" as="geometry">
            <mxPoint x="185" y="635.69" as="sourcePoint" />
            <mxPoint x="185" y="675.69" as="targetPoint" />
          </mxGeometry>
        </mxCell>
        <mxCell id="0w6hp5Dj4LU8r-eOPLkV-88" value="ID" style="ellipse;whiteSpace=wrap;html=1;fillColor=#99CCFF;" parent="1" vertex="1">
          <mxGeometry x="120" y="705.69" width="70" height="40" as="geometry" />
        </mxCell>
        <mxCell id="0w6hp5Dj4LU8r-eOPLkV-89" value="" style="endArrow=none;html=1;rounded=0;exitX=0.5;exitY=0;exitDx=0;exitDy=0;entryX=0.5;entryY=1;entryDx=0;entryDy=0;" parent="1" source="0w6hp5Dj4LU8r-eOPLkV-88" target="0w6hp5Dj4LU8r-eOPLkV-60" edge="1">
          <mxGeometry width="50" height="50" relative="1" as="geometry">
            <mxPoint x="210" y="675.69" as="sourcePoint" />
            <mxPoint x="252" y="629.69" as="targetPoint" />
          </mxGeometry>
        </mxCell>
        <mxCell id="0w6hp5Dj4LU8r-eOPLkV-92" value="ID" style="ellipse;whiteSpace=wrap;html=1;fillColor=#99CCFF;" parent="1" vertex="1">
          <mxGeometry x="20" y="485.31" width="70" height="40" as="geometry" />
        </mxCell>
        <mxCell id="0w6hp5Dj4LU8r-eOPLkV-93" value="" style="endArrow=none;html=1;rounded=0;exitX=0;exitY=0.5;exitDx=0;exitDy=0;entryX=1;entryY=0.5;entryDx=0;entryDy=0;" parent="1" source="0w6hp5Dj4LU8r-eOPLkV-37" target="0w6hp5Dj4LU8r-eOPLkV-92" edge="1">
          <mxGeometry width="50" height="50" relative="1" as="geometry">
            <mxPoint x="120" y="326.31" as="sourcePoint" />
            <mxPoint x="90" y="326.31" as="targetPoint" />
          </mxGeometry>
        </mxCell>
        <mxCell id="0w6hp5Dj4LU8r-eOPLkV-94" value="ID" style="ellipse;whiteSpace=wrap;html=1;fillColor=#99CCFF;" parent="1" vertex="1">
          <mxGeometry x="416" y="526.28" width="70" height="40" as="geometry" />
        </mxCell>
        <mxCell id="0w6hp5Dj4LU8r-eOPLkV-95" value="" style="endArrow=none;html=1;rounded=0;exitX=0.5;exitY=0;exitDx=0;exitDy=0;entryX=0.5;entryY=1;entryDx=0;entryDy=0;" parent="1" source="0w6hp5Dj4LU8r-eOPLkV-94" target="0w6hp5Dj4LU8r-eOPLkV-44" edge="1">
          <mxGeometry width="50" height="50" relative="1" as="geometry">
            <mxPoint x="536" y="495.03000000000003" as="sourcePoint" />
            <mxPoint x="506" y="495.03000000000003" as="targetPoint" />
          </mxGeometry>
        </mxCell>
        <mxCell id="0w6hp5Dj4LU8r-eOPLkV-96" value="nombre" style="ellipse;whiteSpace=wrap;html=1;" parent="1" vertex="1">
          <mxGeometry x="526" y="505.03000000000003" width="70" height="40" as="geometry" />
        </mxCell>
        <mxCell id="0w6hp5Dj4LU8r-eOPLkV-97" value="" style="endArrow=none;html=1;rounded=0;exitX=0;exitY=0.5;exitDx=0;exitDy=0;entryX=1;entryY=0.5;entryDx=0;entryDy=0;" parent="1" source="0w6hp5Dj4LU8r-eOPLkV-96" target="0w6hp5Dj4LU8r-eOPLkV-44" edge="1">
          <mxGeometry width="50" height="50" relative="1" as="geometry">
            <mxPoint x="636" y="405.03000000000003" as="sourcePoint" />
            <mxPoint x="496" y="535.03" as="targetPoint" />
          </mxGeometry>
        </mxCell>
        <mxCell id="0w6hp5Dj4LU8r-eOPLkV-99" value="" style="endArrow=none;html=1;rounded=0;entryX=1;entryY=0.5;entryDx=0;entryDy=0;exitX=0;exitY=0.5;exitDx=0;exitDy=0;" parent="1" source="0w6hp5Dj4LU8r-eOPLkV-1" target="lC7uilPUr1mDyN76dGJ_-163" edge="1">
          <mxGeometry width="50" height="50" relative="1" as="geometry">
            <mxPoint x="606" y="278.72" as="sourcePoint" />
            <mxPoint x="377" y="98.72" as="targetPoint" />
          </mxGeometry>
        </mxCell>
        <mxCell id="0w6hp5Dj4LU8r-eOPLkV-101" value="tiene" style="rhombus;whiteSpace=wrap;html=1;" parent="1" vertex="1">
          <mxGeometry x="532" y="63.72" width="70" height="70" as="geometry" />
        </mxCell>
        <mxCell id="0w6hp5Dj4LU8r-eOPLkV-102" value="(1,N)" style="text;html=1;align=center;verticalAlign=middle;whiteSpace=wrap;rounded=0;" parent="1" vertex="1">
          <mxGeometry x="492" y="78.72" width="40" height="20" as="geometry" />
        </mxCell>
        <mxCell id="0w6hp5Dj4LU8r-eOPLkV-103" value="" style="endArrow=none;html=1;rounded=0;entryX=1;entryY=0.5;entryDx=0;entryDy=0;exitX=0;exitY=0.5;exitDx=0;exitDy=0;" parent="1" source="0w6hp5Dj4LU8r-eOPLkV-101" target="0w6hp5Dj4LU8r-eOPLkV-1" edge="1">
          <mxGeometry width="50" height="50" relative="1" as="geometry">
            <mxPoint x="416" y="108.72" as="sourcePoint" />
            <mxPoint x="387" y="108.72" as="targetPoint" />
          </mxGeometry>
        </mxCell>
        <mxCell id="0w6hp5Dj4LU8r-eOPLkV-104" value="empresa" style="rounded=0;whiteSpace=wrap;html=1;" parent="1" vertex="1">
          <mxGeometry x="636" y="78.72" width="90" height="40" as="geometry" />
        </mxCell>
        <mxCell id="0w6hp5Dj4LU8r-eOPLkV-105" value="" style="endArrow=none;html=1;rounded=0;entryX=1;entryY=0.5;entryDx=0;entryDy=0;exitX=0;exitY=0.5;exitDx=0;exitDy=0;" parent="1" source="0w6hp5Dj4LU8r-eOPLkV-104" target="0w6hp5Dj4LU8r-eOPLkV-101" edge="1">
          <mxGeometry width="50" height="50" relative="1" as="geometry">
            <mxPoint x="416" y="108.72" as="sourcePoint" />
            <mxPoint x="387" y="108.72" as="targetPoint" />
          </mxGeometry>
        </mxCell>
        <mxCell id="0w6hp5Dj4LU8r-eOPLkV-106" value="(1,1)" style="text;html=1;align=center;verticalAlign=middle;whiteSpace=wrap;rounded=0;" parent="1" vertex="1">
          <mxGeometry x="601" y="79.72" width="40" height="20" as="geometry" />
        </mxCell>
        <mxCell id="0w6hp5Dj4LU8r-eOPLkV-107" value="nombre" style="ellipse;whiteSpace=wrap;html=1;fillColor=#99CCFF;" parent="1" vertex="1">
          <mxGeometry x="646" y="134.72" width="70" height="40" as="geometry" />
        </mxCell>
        <mxCell id="0w6hp5Dj4LU8r-eOPLkV-108" value="" style="endArrow=none;html=1;rounded=0;exitX=0.5;exitY=1;exitDx=0;exitDy=0;entryX=0.5;entryY=0;entryDx=0;entryDy=0;" parent="1" source="0w6hp5Dj4LU8r-eOPLkV-104" target="0w6hp5Dj4LU8r-eOPLkV-107" edge="1">
          <mxGeometry width="50" height="50" relative="1" as="geometry">
            <mxPoint x="542" y="108.72" as="sourcePoint" />
            <mxPoint x="681" y="148.72" as="targetPoint" />
          </mxGeometry>
        </mxCell>
        <mxCell id="JG99IvdZPkkhDdZt2j7j-1" value="empresa" style="rounded=0;whiteSpace=wrap;html=1;" parent="1" vertex="1">
          <mxGeometry x="810" y="80" width="90" height="40" as="geometry" />
        </mxCell>
        <mxCell id="JG99IvdZPkkhDdZt2j7j-2" value="nombre" style="ellipse;whiteSpace=wrap;html=1;fillColor=#99CCFF;" parent="1" vertex="1">
          <mxGeometry x="930" y="80" width="70" height="40" as="geometry" />
        </mxCell>
        <mxCell id="JG99IvdZPkkhDdZt2j7j-3" value="" style="endArrow=none;html=1;rounded=0;exitX=1;exitY=0.5;exitDx=0;exitDy=0;entryX=0;entryY=0.5;entryDx=0;entryDy=0;" parent="1" source="JG99IvdZPkkhDdZt2j7j-1" target="JG99IvdZPkkhDdZt2j7j-2" edge="1">
          <mxGeometry width="50" height="50" relative="1" as="geometry">
            <mxPoint x="716" y="110" as="sourcePoint" />
            <mxPoint x="855" y="150" as="targetPoint" />
          </mxGeometry>
        </mxCell>
        <mxCell id="JG99IvdZPkkhDdZt2j7j-4" value="vivero" style="rounded=0;whiteSpace=wrap;html=1;" parent="1" vertex="1">
          <mxGeometry x="810" y="195" width="90" height="40" as="geometry" />
        </mxCell>
        <mxCell id="JG99IvdZPkkhDdZt2j7j-7" value="zona" style="rounded=0;whiteSpace=wrap;html=1;" parent="1" vertex="1">
          <mxGeometry x="810" y="330" width="90" height="40" as="geometry" />
        </mxCell>
        <mxCell id="JG99IvdZPkkhDdZt2j7j-8" value="georref" style="ellipse;whiteSpace=wrap;html=1;fillColor=none;" parent="1" vertex="1">
          <mxGeometry x="930" y="330" width="70" height="40" as="geometry" />
        </mxCell>
        <mxCell id="JG99IvdZPkkhDdZt2j7j-9" value="latitud" style="ellipse;whiteSpace=wrap;html=1;" parent="1" vertex="1">
          <mxGeometry x="1030" y="360" width="70" height="40" as="geometry" />
        </mxCell>
        <mxCell id="JG99IvdZPkkhDdZt2j7j-10" value="longitud" style="ellipse;whiteSpace=wrap;html=1;" parent="1" vertex="1">
          <mxGeometry x="1030" y="300" width="70" height="40" as="geometry" />
        </mxCell>
        <mxCell id="JG99IvdZPkkhDdZt2j7j-11" value="" style="endArrow=none;html=1;rounded=0;entryX=0;entryY=0.5;entryDx=0;entryDy=0;exitX=1;exitY=0.5;exitDx=0;exitDy=0;" parent="1" source="JG99IvdZPkkhDdZt2j7j-8" target="JG99IvdZPkkhDdZt2j7j-10" edge="1">
          <mxGeometry width="50" height="50" relative="1" as="geometry">
            <mxPoint x="850" y="220" as="sourcePoint" />
            <mxPoint x="850" y="180" as="targetPoint" />
          </mxGeometry>
        </mxCell>
        <mxCell id="JG99IvdZPkkhDdZt2j7j-12" value="" style="endArrow=none;html=1;rounded=0;exitX=0;exitY=0.5;exitDx=0;exitDy=0;entryX=1;entryY=0.5;entryDx=0;entryDy=0;" parent="1" source="JG99IvdZPkkhDdZt2j7j-9" target="JG99IvdZPkkhDdZt2j7j-8" edge="1">
          <mxGeometry width="50" height="50" relative="1" as="geometry">
            <mxPoint x="860" y="230" as="sourcePoint" />
            <mxPoint x="1010" y="360" as="targetPoint" />
          </mxGeometry>
        </mxCell>
        <mxCell id="JG99IvdZPkkhDdZt2j7j-13" value="" style="endArrow=none;html=1;rounded=0;entryX=1;entryY=0.5;entryDx=0;entryDy=0;exitX=0;exitY=0.5;exitDx=0;exitDy=0;" parent="1" source="JG99IvdZPkkhDdZt2j7j-8" target="JG99IvdZPkkhDdZt2j7j-7" edge="1">
          <mxGeometry width="50" height="50" relative="1" as="geometry">
            <mxPoint x="870" y="240" as="sourcePoint" />
            <mxPoint x="870" y="200" as="targetPoint" />
          </mxGeometry>
        </mxCell>
        <mxCell id="JG99IvdZPkkhDdZt2j7j-25" value="producto" style="rounded=0;whiteSpace=wrap;html=1;" parent="1" vertex="1">
          <mxGeometry x="810" y="619.38" width="90" height="40" as="geometry" />
        </mxCell>
        <mxCell id="JG99IvdZPkkhDdZt2j7j-26" value="stock" style="ellipse;whiteSpace=wrap;html=1;" parent="1" vertex="1">
          <mxGeometry x="930" y="579.38" width="70" height="40" as="geometry" />
        </mxCell>
        <mxCell id="JG99IvdZPkkhDdZt2j7j-27" value="" style="endArrow=none;html=1;rounded=0;exitX=0;exitY=0.5;exitDx=0;exitDy=0;entryX=1;entryY=0.5;entryDx=0;entryDy=0;" parent="1" source="JG99IvdZPkkhDdZt2j7j-26" target="JG99IvdZPkkhDdZt2j7j-25" edge="1">
          <mxGeometry width="50" height="50" relative="1" as="geometry">
            <mxPoint x="1040" y="509.38" as="sourcePoint" />
            <mxPoint x="1010" y="479.38" as="targetPoint" />
          </mxGeometry>
        </mxCell>
        <mxCell id="JG99IvdZPkkhDdZt2j7j-28" value="ID" style="ellipse;whiteSpace=wrap;html=1;fillColor=#99CCFF;" parent="1" vertex="1">
          <mxGeometry x="820" y="680.63" width="70" height="40" as="geometry" />
        </mxCell>
        <mxCell id="JG99IvdZPkkhDdZt2j7j-29" value="" style="endArrow=none;html=1;rounded=0;exitX=0.5;exitY=0;exitDx=0;exitDy=0;entryX=0.5;entryY=1;entryDx=0;entryDy=0;" parent="1" source="JG99IvdZPkkhDdZt2j7j-28" target="JG99IvdZPkkhDdZt2j7j-25" edge="1">
          <mxGeometry width="50" height="50" relative="1" as="geometry">
            <mxPoint x="940" y="649.38" as="sourcePoint" />
            <mxPoint x="910" y="649.38" as="targetPoint" />
          </mxGeometry>
        </mxCell>
        <mxCell id="JG99IvdZPkkhDdZt2j7j-30" value="nombre" style="ellipse;whiteSpace=wrap;html=1;" parent="1" vertex="1">
          <mxGeometry x="930" y="659.38" width="70" height="40" as="geometry" />
        </mxCell>
        <mxCell id="JG99IvdZPkkhDdZt2j7j-31" value="" style="endArrow=none;html=1;rounded=0;exitX=0;exitY=0.5;exitDx=0;exitDy=0;entryX=1;entryY=0.5;entryDx=0;entryDy=0;" parent="1" source="JG99IvdZPkkhDdZt2j7j-30" target="JG99IvdZPkkhDdZt2j7j-25" edge="1">
          <mxGeometry width="50" height="50" relative="1" as="geometry">
            <mxPoint x="1040" y="559.38" as="sourcePoint" />
            <mxPoint x="900" y="689.38" as="targetPoint" />
          </mxGeometry>
        </mxCell>
        <mxCell id="JG99IvdZPkkhDdZt2j7j-32" value="pedido" style="rounded=0;whiteSpace=wrap;html=1;" parent="1" vertex="1">
          <mxGeometry x="810" y="780" width="90" height="40" as="geometry" />
        </mxCell>
        <mxCell id="JG99IvdZPkkhDdZt2j7j-33" value="ID" style="ellipse;whiteSpace=wrap;html=1;fillColor=#99CCFF;" parent="1" vertex="1">
          <mxGeometry x="930" y="750" width="70" height="40" as="geometry" />
        </mxCell>
        <mxCell id="JG99IvdZPkkhDdZt2j7j-34" value="" style="endArrow=none;html=1;rounded=0;exitX=1;exitY=0.5;exitDx=0;exitDy=0;entryX=0;entryY=0.5;entryDx=0;entryDy=0;" parent="1" source="JG99IvdZPkkhDdZt2j7j-32" target="JG99IvdZPkkhDdZt2j7j-33" edge="1">
          <mxGeometry width="50" height="50" relative="1" as="geometry">
            <mxPoint x="920" y="640" as="sourcePoint" />
            <mxPoint x="890" y="640" as="targetPoint" />
          </mxGeometry>
        </mxCell>
        <mxCell id="JG99IvdZPkkhDdZt2j7j-40" value="cliente+" style="rounded=0;whiteSpace=wrap;html=1;" parent="1" vertex="1">
          <mxGeometry x="810" y="935" width="90" height="40" as="geometry" />
        </mxCell>
        <mxCell id="JG99IvdZPkkhDdZt2j7j-41" value="fecha ingreso" style="ellipse;whiteSpace=wrap;html=1;" parent="1" vertex="1">
          <mxGeometry x="932" y="875" width="70" height="40" as="geometry" />
        </mxCell>
        <mxCell id="JG99IvdZPkkhDdZt2j7j-42" value="bonificacion" style="ellipse;whiteSpace=wrap;html=1;align=center;dashed=1;" parent="1" vertex="1">
          <mxGeometry x="933" y="935" width="70" height="40" as="geometry" />
        </mxCell>
        <mxCell id="JG99IvdZPkkhDdZt2j7j-43" value="num compras" style="ellipse;whiteSpace=wrap;html=1;" parent="1" vertex="1">
          <mxGeometry x="930" y="995" width="70" height="40" as="geometry" />
        </mxCell>
        <mxCell id="JG99IvdZPkkhDdZt2j7j-44" value="" style="endArrow=none;html=1;rounded=0;exitX=1;exitY=0.5;exitDx=0;exitDy=0;entryX=0;entryY=0;entryDx=0;entryDy=0;" parent="1" source="JG99IvdZPkkhDdZt2j7j-40" target="JG99IvdZPkkhDdZt2j7j-43" edge="1">
          <mxGeometry width="50" height="50" relative="1" as="geometry">
            <mxPoint x="865" y="905" as="sourcePoint" />
            <mxPoint x="910" y="955" as="targetPoint" />
          </mxGeometry>
        </mxCell>
        <mxCell id="JG99IvdZPkkhDdZt2j7j-45" value="" style="endArrow=none;html=1;rounded=0;exitX=1;exitY=0.5;exitDx=0;exitDy=0;entryX=0;entryY=0.5;entryDx=0;entryDy=0;" parent="1" source="JG99IvdZPkkhDdZt2j7j-40" target="JG99IvdZPkkhDdZt2j7j-42" edge="1">
          <mxGeometry width="50" height="50" relative="1" as="geometry">
            <mxPoint x="875" y="915" as="sourcePoint" />
            <mxPoint x="875" y="955" as="targetPoint" />
          </mxGeometry>
        </mxCell>
        <mxCell id="JG99IvdZPkkhDdZt2j7j-46" value="" style="endArrow=none;html=1;rounded=0;exitX=1;exitY=0.5;exitDx=0;exitDy=0;entryX=0;entryY=1;entryDx=0;entryDy=0;" parent="1" source="JG99IvdZPkkhDdZt2j7j-40" target="JG99IvdZPkkhDdZt2j7j-41" edge="1">
          <mxGeometry width="50" height="50" relative="1" as="geometry">
            <mxPoint x="885" y="925" as="sourcePoint" />
            <mxPoint x="885" y="965" as="targetPoint" />
          </mxGeometry>
        </mxCell>
        <mxCell id="JG99IvdZPkkhDdZt2j7j-47" value="ID" style="ellipse;whiteSpace=wrap;html=1;fillColor=#99CCFF;" parent="1" vertex="1">
          <mxGeometry x="820" y="995" width="70" height="40" as="geometry" />
        </mxCell>
        <mxCell id="JG99IvdZPkkhDdZt2j7j-48" value="" style="endArrow=none;html=1;rounded=0;exitX=0.5;exitY=0;exitDx=0;exitDy=0;entryX=0.5;entryY=1;entryDx=0;entryDy=0;" parent="1" source="JG99IvdZPkkhDdZt2j7j-47" target="JG99IvdZPkkhDdZt2j7j-40" edge="1">
          <mxGeometry width="50" height="50" relative="1" as="geometry">
            <mxPoint x="910" y="965" as="sourcePoint" />
            <mxPoint x="952" y="919" as="targetPoint" />
          </mxGeometry>
        </mxCell>
        <mxCell id="lC7uilPUr1mDyN76dGJ_-4" value="vivero" style="rounded=0;whiteSpace=wrap;html=1;" parent="1" vertex="1">
          <mxGeometry x="1338.5" y="50" width="90" height="40" as="geometry" />
        </mxCell>
        <mxCell id="lC7uilPUr1mDyN76dGJ_-6" value="" style="endArrow=none;html=1;rounded=0;entryX=1;entryY=0.5;entryDx=0;entryDy=0;exitX=0;exitY=0.5;exitDx=0;exitDy=0;" parent="1" source="lC7uilPUr1mDyN76dGJ_-4" target="lC7uilPUr1mDyN76dGJ_-186" edge="1">
          <mxGeometry width="50" height="50" relative="1" as="geometry">
            <mxPoint x="1538.5" y="250" as="sourcePoint" />
            <mxPoint x="1309.5" y="70" as="targetPoint" />
          </mxGeometry>
        </mxCell>
        <mxCell id="lC7uilPUr1mDyN76dGJ_-7" value="tiene" style="rhombus;whiteSpace=wrap;html=1;" parent="1" vertex="1">
          <mxGeometry x="1464.5" y="35" width="70" height="70" as="geometry" />
        </mxCell>
        <mxCell id="lC7uilPUr1mDyN76dGJ_-8" value="(1,N)" style="text;html=1;align=center;verticalAlign=middle;whiteSpace=wrap;rounded=0;" parent="1" vertex="1">
          <mxGeometry x="1424.5" y="50" width="40" height="20" as="geometry" />
        </mxCell>
        <mxCell id="lC7uilPUr1mDyN76dGJ_-9" value="" style="endArrow=none;html=1;rounded=0;entryX=1;entryY=0.5;entryDx=0;entryDy=0;exitX=0;exitY=0.5;exitDx=0;exitDy=0;" parent="1" source="lC7uilPUr1mDyN76dGJ_-7" target="lC7uilPUr1mDyN76dGJ_-4" edge="1">
          <mxGeometry width="50" height="50" relative="1" as="geometry">
            <mxPoint x="1348.5" y="80" as="sourcePoint" />
            <mxPoint x="1319.5" y="80" as="targetPoint" />
          </mxGeometry>
        </mxCell>
        <mxCell id="lC7uilPUr1mDyN76dGJ_-10" value="empresa" style="rounded=0;whiteSpace=wrap;html=1;" parent="1" vertex="1">
          <mxGeometry x="1568.5" y="50" width="90" height="40" as="geometry" />
        </mxCell>
        <mxCell id="lC7uilPUr1mDyN76dGJ_-11" value="" style="endArrow=none;html=1;rounded=0;entryX=1;entryY=0.5;entryDx=0;entryDy=0;exitX=0;exitY=0.5;exitDx=0;exitDy=0;" parent="1" source="lC7uilPUr1mDyN76dGJ_-10" target="lC7uilPUr1mDyN76dGJ_-7" edge="1">
          <mxGeometry width="50" height="50" relative="1" as="geometry">
            <mxPoint x="1348.5" y="80" as="sourcePoint" />
            <mxPoint x="1319.5" y="80" as="targetPoint" />
          </mxGeometry>
        </mxCell>
        <mxCell id="lC7uilPUr1mDyN76dGJ_-12" value="(1,1)" style="text;html=1;align=center;verticalAlign=middle;whiteSpace=wrap;rounded=0;" parent="1" vertex="1">
          <mxGeometry x="1533.5" y="51" width="40" height="20" as="geometry" />
        </mxCell>
        <mxCell id="lC7uilPUr1mDyN76dGJ_-13" value="nombre" style="ellipse;whiteSpace=wrap;html=1;fillColor=#99CCFF;" parent="1" vertex="1">
          <mxGeometry x="1683.5" y="50" width="70" height="40" as="geometry" />
        </mxCell>
        <mxCell id="lC7uilPUr1mDyN76dGJ_-14" value="" style="endArrow=none;html=1;rounded=0;exitX=1;exitY=0.5;exitDx=0;exitDy=0;entryX=0;entryY=0.5;entryDx=0;entryDy=0;" parent="1" source="lC7uilPUr1mDyN76dGJ_-10" target="lC7uilPUr1mDyN76dGJ_-13" edge="1">
          <mxGeometry width="50" height="50" relative="1" as="geometry">
            <mxPoint x="1474.5" y="80" as="sourcePoint" />
            <mxPoint x="1613.5" y="120" as="targetPoint" />
          </mxGeometry>
        </mxCell>
        <mxCell id="lC7uilPUr1mDyN76dGJ_-35" value="vivero" style="rounded=0;whiteSpace=wrap;html=1;" parent="1" vertex="1">
          <mxGeometry x="1338" y="191" width="90" height="40" as="geometry" />
        </mxCell>
        <mxCell id="lC7uilPUr1mDyN76dGJ_-36" value="zona" style="rounded=0;whiteSpace=wrap;html=1;" parent="1" vertex="1">
          <mxGeometry x="1573" y="190" width="90" height="40" as="geometry" />
        </mxCell>
        <mxCell id="lC7uilPUr1mDyN76dGJ_-37" value="pertenece" style="rhombus;whiteSpace=wrap;html=1;" parent="1" vertex="1">
          <mxGeometry x="1464" y="176" width="70" height="70" as="geometry" />
        </mxCell>
        <mxCell id="lC7uilPUr1mDyN76dGJ_-38" value="" style="endArrow=none;html=1;rounded=0;entryX=1;entryY=0.5;entryDx=0;entryDy=0;exitX=0;exitY=0.5;exitDx=0;exitDy=0;" parent="1" source="lC7uilPUr1mDyN76dGJ_-37" target="lC7uilPUr1mDyN76dGJ_-35" edge="1">
          <mxGeometry width="50" height="50" relative="1" as="geometry">
            <mxPoint x="1378" y="520" as="sourcePoint" />
            <mxPoint x="1428" y="470" as="targetPoint" />
          </mxGeometry>
        </mxCell>
        <mxCell id="lC7uilPUr1mDyN76dGJ_-39" value="" style="endArrow=none;html=1;rounded=0;entryX=1;entryY=0.5;entryDx=0;entryDy=0;exitX=0;exitY=0.5;exitDx=0;exitDy=0;" parent="1" source="lC7uilPUr1mDyN76dGJ_-36" target="lC7uilPUr1mDyN76dGJ_-37" edge="1">
          <mxGeometry width="50" height="50" relative="1" as="geometry">
            <mxPoint x="1378" y="250" as="sourcePoint" />
            <mxPoint x="1378" y="210" as="targetPoint" />
          </mxGeometry>
        </mxCell>
        <mxCell id="lC7uilPUr1mDyN76dGJ_-40" value="(1,1)" style="text;html=1;align=center;verticalAlign=middle;whiteSpace=wrap;rounded=0;" parent="1" vertex="1">
          <mxGeometry x="1424" y="191" width="40" height="20" as="geometry" />
        </mxCell>
        <mxCell id="lC7uilPUr1mDyN76dGJ_-41" value="(1,N)" style="text;html=1;align=center;verticalAlign=middle;whiteSpace=wrap;rounded=0;" parent="1" vertex="1">
          <mxGeometry x="1538" y="190" width="40" height="20" as="geometry" />
        </mxCell>
        <mxCell id="lC7uilPUr1mDyN76dGJ_-43" value="" style="endArrow=none;html=1;rounded=0;entryX=1;entryY=0.5;entryDx=0;entryDy=0;exitX=0;exitY=0.5;exitDx=0;exitDy=0;" parent="1" source="lC7uilPUr1mDyN76dGJ_-35" target="lC7uilPUr1mDyN76dGJ_-191" edge="1">
          <mxGeometry width="50" height="50" relative="1" as="geometry">
            <mxPoint x="1538" y="390" as="sourcePoint" />
            <mxPoint x="1309" y="211" as="targetPoint" />
          </mxGeometry>
        </mxCell>
        <mxCell id="lC7uilPUr1mDyN76dGJ_-44" value="georref" style="ellipse;whiteSpace=wrap;html=1;fillColor=none;" parent="1" vertex="1">
          <mxGeometry x="1683" y="190" width="70" height="40" as="geometry" />
        </mxCell>
        <mxCell id="lC7uilPUr1mDyN76dGJ_-45" value="latitud" style="ellipse;whiteSpace=wrap;html=1;" parent="1" vertex="1">
          <mxGeometry x="1789" y="220" width="70" height="40" as="geometry" />
        </mxCell>
        <mxCell id="lC7uilPUr1mDyN76dGJ_-46" value="longitud" style="ellipse;whiteSpace=wrap;html=1;" parent="1" vertex="1">
          <mxGeometry x="1789" y="160" width="70" height="40" as="geometry" />
        </mxCell>
        <mxCell id="lC7uilPUr1mDyN76dGJ_-47" value="" style="endArrow=none;html=1;rounded=0;entryX=0;entryY=0.5;entryDx=0;entryDy=0;exitX=1;exitY=0.5;exitDx=0;exitDy=0;" parent="1" source="lC7uilPUr1mDyN76dGJ_-44" target="lC7uilPUr1mDyN76dGJ_-46" edge="1">
          <mxGeometry width="50" height="50" relative="1" as="geometry">
            <mxPoint x="1629" y="80" as="sourcePoint" />
            <mxPoint x="1629" y="40" as="targetPoint" />
          </mxGeometry>
        </mxCell>
        <mxCell id="lC7uilPUr1mDyN76dGJ_-48" value="" style="endArrow=none;html=1;rounded=0;exitX=0;exitY=0.5;exitDx=0;exitDy=0;entryX=1;entryY=0.5;entryDx=0;entryDy=0;" parent="1" source="lC7uilPUr1mDyN76dGJ_-45" target="lC7uilPUr1mDyN76dGJ_-44" edge="1">
          <mxGeometry width="50" height="50" relative="1" as="geometry">
            <mxPoint x="1639" y="90" as="sourcePoint" />
            <mxPoint x="1789" y="220" as="targetPoint" />
          </mxGeometry>
        </mxCell>
        <mxCell id="lC7uilPUr1mDyN76dGJ_-49" value="" style="endArrow=none;html=1;rounded=0;entryX=1;entryY=0.5;entryDx=0;entryDy=0;exitX=0;exitY=0.5;exitDx=0;exitDy=0;" parent="1" source="lC7uilPUr1mDyN76dGJ_-44" target="lC7uilPUr1mDyN76dGJ_-36" edge="1">
          <mxGeometry width="50" height="50" relative="1" as="geometry">
            <mxPoint x="1649" y="100" as="sourcePoint" />
            <mxPoint x="1679" y="210" as="targetPoint" />
          </mxGeometry>
        </mxCell>
        <mxCell id="lC7uilPUr1mDyN76dGJ_-50" value="zona" style="rounded=0;whiteSpace=wrap;html=1;" parent="1" vertex="1">
          <mxGeometry x="1550" y="367.5" width="90" height="40" as="geometry" />
        </mxCell>
        <mxCell id="lC7uilPUr1mDyN76dGJ_-51" value="georref" style="ellipse;whiteSpace=wrap;html=1;fillColor=none;" parent="1" vertex="1">
          <mxGeometry x="1670" y="367.5" width="70" height="40" as="geometry" />
        </mxCell>
        <mxCell id="lC7uilPUr1mDyN76dGJ_-52" value="latitud" style="ellipse;whiteSpace=wrap;html=1;" parent="1" vertex="1">
          <mxGeometry x="1770" y="397.5" width="70" height="40" as="geometry" />
        </mxCell>
        <mxCell id="lC7uilPUr1mDyN76dGJ_-53" value="longitud" style="ellipse;whiteSpace=wrap;html=1;" parent="1" vertex="1">
          <mxGeometry x="1770" y="337.5" width="70" height="40" as="geometry" />
        </mxCell>
        <mxCell id="lC7uilPUr1mDyN76dGJ_-54" value="" style="endArrow=none;html=1;rounded=0;entryX=0;entryY=0.5;entryDx=0;entryDy=0;exitX=1;exitY=0.5;exitDx=0;exitDy=0;" parent="1" source="lC7uilPUr1mDyN76dGJ_-51" target="lC7uilPUr1mDyN76dGJ_-53" edge="1">
          <mxGeometry width="50" height="50" relative="1" as="geometry">
            <mxPoint x="1590" y="257.5" as="sourcePoint" />
            <mxPoint x="1590" y="217.5" as="targetPoint" />
          </mxGeometry>
        </mxCell>
        <mxCell id="lC7uilPUr1mDyN76dGJ_-55" value="" style="endArrow=none;html=1;rounded=0;exitX=0;exitY=0.5;exitDx=0;exitDy=0;entryX=1;entryY=0.5;entryDx=0;entryDy=0;" parent="1" source="lC7uilPUr1mDyN76dGJ_-52" target="lC7uilPUr1mDyN76dGJ_-51" edge="1">
          <mxGeometry width="50" height="50" relative="1" as="geometry">
            <mxPoint x="1600" y="267.5" as="sourcePoint" />
            <mxPoint x="1750" y="397.5" as="targetPoint" />
          </mxGeometry>
        </mxCell>
        <mxCell id="lC7uilPUr1mDyN76dGJ_-56" value="" style="endArrow=none;html=1;rounded=0;entryX=1;entryY=0.5;entryDx=0;entryDy=0;exitX=0;exitY=0.5;exitDx=0;exitDy=0;" parent="1" source="lC7uilPUr1mDyN76dGJ_-51" target="lC7uilPUr1mDyN76dGJ_-50" edge="1">
          <mxGeometry width="50" height="50" relative="1" as="geometry">
            <mxPoint x="1610" y="277.5" as="sourcePoint" />
            <mxPoint x="1610" y="237.5" as="targetPoint" />
          </mxGeometry>
        </mxCell>
        <mxCell id="lC7uilPUr1mDyN76dGJ_-57" value="trabaja" style="rhombus;whiteSpace=wrap;html=1;" parent="1" vertex="1">
          <mxGeometry x="1440" y="352.5" width="70" height="70" as="geometry" />
        </mxCell>
        <mxCell id="lC7uilPUr1mDyN76dGJ_-58" value="empleado" style="rounded=0;whiteSpace=wrap;html=1;" parent="1" vertex="1">
          <mxGeometry x="1239" y="370" width="90" height="40" as="geometry" />
        </mxCell>
        <mxCell id="lC7uilPUr1mDyN76dGJ_-59" value="" style="endArrow=none;html=1;rounded=0;entryX=1;entryY=0.5;entryDx=0;entryDy=0;exitX=0;exitY=0.5;exitDx=0;exitDy=0;" parent="1" source="lC7uilPUr1mDyN76dGJ_-50" target="lC7uilPUr1mDyN76dGJ_-57" edge="1">
          <mxGeometry width="50" height="50" relative="1" as="geometry">
            <mxPoint x="1750" y="397.5" as="sourcePoint" />
            <mxPoint x="1780" y="367.5" as="targetPoint" />
          </mxGeometry>
        </mxCell>
        <mxCell id="lC7uilPUr1mDyN76dGJ_-60" value="" style="endArrow=none;html=1;rounded=0;entryX=1;entryY=0.5;entryDx=0;entryDy=0;exitX=0;exitY=0.5;exitDx=0;exitDy=0;" parent="1" source="lC7uilPUr1mDyN76dGJ_-57" target="lC7uilPUr1mDyN76dGJ_-58" edge="1">
          <mxGeometry width="50" height="50" relative="1" as="geometry">
            <mxPoint x="1689" y="410" as="sourcePoint" />
            <mxPoint x="1719" y="380" as="targetPoint" />
          </mxGeometry>
        </mxCell>
        <mxCell id="lC7uilPUr1mDyN76dGJ_-61" value="(1,1)" style="text;html=1;align=center;verticalAlign=middle;whiteSpace=wrap;rounded=0;" parent="1" vertex="1">
          <mxGeometry x="1514" y="367.5" width="40" height="20" as="geometry" />
        </mxCell>
        <mxCell id="lC7uilPUr1mDyN76dGJ_-62" value="(1,N)" style="text;html=1;align=center;verticalAlign=middle;whiteSpace=wrap;rounded=0;" parent="1" vertex="1">
          <mxGeometry x="1326" y="370" width="40" height="20" as="geometry" />
        </mxCell>
        <mxCell id="lC7uilPUr1mDyN76dGJ_-64" value="" style="endArrow=none;html=1;rounded=0;entryX=0.5;entryY=1;entryDx=0;entryDy=0;exitX=0.5;exitY=0;exitDx=0;exitDy=0;" parent="1" source="lC7uilPUr1mDyN76dGJ_-58" target="lC7uilPUr1mDyN76dGJ_-77" edge="1">
          <mxGeometry width="50" height="50" relative="1" as="geometry">
            <mxPoint x="1679" y="400" as="sourcePoint" />
            <mxPoint x="1284" y="350" as="targetPoint" />
          </mxGeometry>
        </mxCell>
        <mxCell id="lC7uilPUr1mDyN76dGJ_-68" value="" style="endArrow=none;html=1;rounded=0;exitX=0;exitY=0.5;exitDx=0;exitDy=0;entryX=1;entryY=0.5;entryDx=0;entryDy=0;" parent="1" source="lC7uilPUr1mDyN76dGJ_-58" target="lC7uilPUr1mDyN76dGJ_-69" edge="1">
          <mxGeometry width="50" height="50" relative="1" as="geometry">
            <mxPoint x="1294" y="380" as="sourcePoint" />
            <mxPoint x="1199" y="390" as="targetPoint" />
          </mxGeometry>
        </mxCell>
        <mxCell id="lC7uilPUr1mDyN76dGJ_-69" value="ID" style="ellipse;whiteSpace=wrap;html=1;fillColor=#99CCFF;" parent="1" vertex="1">
          <mxGeometry x="1140" y="370" width="70" height="40" as="geometry" />
        </mxCell>
        <mxCell id="lC7uilPUr1mDyN76dGJ_-70" value="" style="endArrow=none;html=1;rounded=0;exitX=0;exitY=0;exitDx=0;exitDy=0;entryX=1;entryY=1;entryDx=0;entryDy=0;" parent="1" source="lC7uilPUr1mDyN76dGJ_-58" target="lC7uilPUr1mDyN76dGJ_-71" edge="1">
          <mxGeometry width="50" height="50" relative="1" as="geometry">
            <mxPoint x="1239" y="335" as="sourcePoint" />
            <mxPoint x="1199" y="335" as="targetPoint" />
          </mxGeometry>
        </mxCell>
        <mxCell id="lC7uilPUr1mDyN76dGJ_-71" value="nombre" style="ellipse;whiteSpace=wrap;html=1;" parent="1" vertex="1">
          <mxGeometry x="1140" y="315" width="70" height="40" as="geometry" />
        </mxCell>
        <mxCell id="lC7uilPUr1mDyN76dGJ_-73" value="&lt;span style=&quot;color: rgba(0, 0, 0, 0); font-family: monospace; font-size: 0px; text-align: start; background-color: rgb(251, 251, 251);&quot;&gt;%3CmxGraphModel%3E%3Croot%3E%3CmxCell%20id%3D%220%22%2F%3E%3CmxCell%20id%3D%221%22%20parent%3D%220%22%2F%3E%3CmxCell%20id%3D%222%22%20value%3D%22longitud%22%20style%3D%22ellipse%3BwhiteSpace%3Dwrap%3Bhtml%3D1%3B%22%20vertex%3D%221%22%20parent%3D%221%22%3E%3CmxGeometry%20x%3D%22570%22%20y%3D%22220%22%20width%3D%2270%22%20height%3D%2240%22%20as%3D%22geometry%22%2F%3E%3C%2FmxCell%3E%3C%2Froot%3E%3C%2FmxGraphModel%3E&lt;/span&gt;" style="endArrow=none;html=1;rounded=0;entryX=0.5;entryY=0;entryDx=0;entryDy=0;exitX=0.5;exitY=1;exitDx=0;exitDy=0;" parent="1" source="lC7uilPUr1mDyN76dGJ_-74" target="lC7uilPUr1mDyN76dGJ_-57" edge="1">
          <mxGeometry width="50" height="50" relative="1" as="geometry">
            <mxPoint x="1475" y="327.5" as="sourcePoint" />
            <mxPoint x="1760" y="407.5" as="targetPoint" />
          </mxGeometry>
        </mxCell>
        <mxCell id="lC7uilPUr1mDyN76dGJ_-74" value="tarea" style="ellipse;whiteSpace=wrap;html=1;" parent="1" vertex="1">
          <mxGeometry x="1441" y="292.5" width="70" height="40" as="geometry" />
        </mxCell>
        <mxCell id="lC7uilPUr1mDyN76dGJ_-77" value="objetivos" style="ellipse;shape=doubleEllipse;margin=3;whiteSpace=wrap;html=1;align=center;" parent="1" vertex="1">
          <mxGeometry x="1249" y="315" width="70" height="40" as="geometry" />
        </mxCell>
        <mxCell id="lC7uilPUr1mDyN76dGJ_-78" value="empleado" style="rounded=0;whiteSpace=wrap;html=1;" parent="1" vertex="1">
          <mxGeometry x="900" y="510" width="90" height="40" as="geometry" />
        </mxCell>
        <mxCell id="lC7uilPUr1mDyN76dGJ_-79" value="" style="endArrow=none;html=1;rounded=0;entryX=0.5;entryY=1;entryDx=0;entryDy=0;exitX=0.5;exitY=0;exitDx=0;exitDy=0;" parent="1" source="lC7uilPUr1mDyN76dGJ_-78" target="lC7uilPUr1mDyN76dGJ_-84" edge="1">
          <mxGeometry width="50" height="50" relative="1" as="geometry">
            <mxPoint x="1340" y="540" as="sourcePoint" />
            <mxPoint x="945" y="490" as="targetPoint" />
          </mxGeometry>
        </mxCell>
        <mxCell id="lC7uilPUr1mDyN76dGJ_-80" value="" style="endArrow=none;html=1;rounded=0;exitX=0;exitY=0.5;exitDx=0;exitDy=0;entryX=1;entryY=0.5;entryDx=0;entryDy=0;" parent="1" source="lC7uilPUr1mDyN76dGJ_-78" target="lC7uilPUr1mDyN76dGJ_-81" edge="1">
          <mxGeometry width="50" height="50" relative="1" as="geometry">
            <mxPoint x="955" y="520" as="sourcePoint" />
            <mxPoint x="860" y="530" as="targetPoint" />
          </mxGeometry>
        </mxCell>
        <mxCell id="lC7uilPUr1mDyN76dGJ_-81" value="ID" style="ellipse;whiteSpace=wrap;html=1;fillColor=#99CCFF;" parent="1" vertex="1">
          <mxGeometry x="810" y="510" width="70" height="40" as="geometry" />
        </mxCell>
        <mxCell id="lC7uilPUr1mDyN76dGJ_-82" value="" style="endArrow=none;html=1;rounded=0;exitX=0;exitY=0;exitDx=0;exitDy=0;entryX=1;entryY=1;entryDx=0;entryDy=0;" parent="1" source="lC7uilPUr1mDyN76dGJ_-78" target="lC7uilPUr1mDyN76dGJ_-83" edge="1">
          <mxGeometry width="50" height="50" relative="1" as="geometry">
            <mxPoint x="900" y="475" as="sourcePoint" />
            <mxPoint x="860" y="475" as="targetPoint" />
          </mxGeometry>
        </mxCell>
        <mxCell id="lC7uilPUr1mDyN76dGJ_-83" value="nombre" style="ellipse;whiteSpace=wrap;html=1;" parent="1" vertex="1">
          <mxGeometry x="810" y="450" width="70" height="40" as="geometry" />
        </mxCell>
        <mxCell id="lC7uilPUr1mDyN76dGJ_-84" value="objetivos" style="ellipse;shape=doubleEllipse;margin=3;whiteSpace=wrap;html=1;align=center;" parent="1" vertex="1">
          <mxGeometry x="910" y="451" width="70" height="40" as="geometry" />
        </mxCell>
        <mxCell id="lC7uilPUr1mDyN76dGJ_-85" value="objetivos" style="ellipse;shape=doubleEllipse;margin=3;whiteSpace=wrap;html=1;align=center;" parent="1" vertex="1">
          <mxGeometry x="120" y="195" width="70" height="40" as="geometry" />
        </mxCell>
        <mxCell id="lC7uilPUr1mDyN76dGJ_-87" value="zona" style="rounded=0;whiteSpace=wrap;html=1;" parent="1" vertex="1">
          <mxGeometry x="1474.5" y="706.6899999999999" width="90" height="40" as="geometry" />
        </mxCell>
        <mxCell id="lC7uilPUr1mDyN76dGJ_-88" value="georref" style="ellipse;whiteSpace=wrap;html=1;fillColor=none;" parent="1" vertex="1">
          <mxGeometry x="1594.5" y="706.6899999999999" width="70" height="40" as="geometry" />
        </mxCell>
        <mxCell id="lC7uilPUr1mDyN76dGJ_-89" value="latitud" style="ellipse;whiteSpace=wrap;html=1;" parent="1" vertex="1">
          <mxGeometry x="1694.5" y="736.6899999999999" width="70" height="40" as="geometry" />
        </mxCell>
        <mxCell id="lC7uilPUr1mDyN76dGJ_-90" value="longitud" style="ellipse;whiteSpace=wrap;html=1;" parent="1" vertex="1">
          <mxGeometry x="1694.5" y="676.6899999999999" width="70" height="40" as="geometry" />
        </mxCell>
        <mxCell id="lC7uilPUr1mDyN76dGJ_-91" value="" style="endArrow=none;html=1;rounded=0;entryX=0;entryY=0.5;entryDx=0;entryDy=0;exitX=1;exitY=0.5;exitDx=0;exitDy=0;" parent="1" source="lC7uilPUr1mDyN76dGJ_-88" target="lC7uilPUr1mDyN76dGJ_-90" edge="1">
          <mxGeometry width="50" height="50" relative="1" as="geometry">
            <mxPoint x="1514.5" y="596.6899999999999" as="sourcePoint" />
            <mxPoint x="1514.5" y="556.6899999999999" as="targetPoint" />
          </mxGeometry>
        </mxCell>
        <mxCell id="lC7uilPUr1mDyN76dGJ_-92" value="" style="endArrow=none;html=1;rounded=0;exitX=0;exitY=0.5;exitDx=0;exitDy=0;entryX=1;entryY=0.5;entryDx=0;entryDy=0;" parent="1" source="lC7uilPUr1mDyN76dGJ_-89" target="lC7uilPUr1mDyN76dGJ_-88" edge="1">
          <mxGeometry width="50" height="50" relative="1" as="geometry">
            <mxPoint x="1524.5" y="606.6899999999999" as="sourcePoint" />
            <mxPoint x="1674.5" y="736.6899999999999" as="targetPoint" />
          </mxGeometry>
        </mxCell>
        <mxCell id="lC7uilPUr1mDyN76dGJ_-93" value="" style="endArrow=none;html=1;rounded=0;entryX=1;entryY=0.5;entryDx=0;entryDy=0;exitX=0;exitY=0.5;exitDx=0;exitDy=0;" parent="1" source="lC7uilPUr1mDyN76dGJ_-88" target="lC7uilPUr1mDyN76dGJ_-87" edge="1">
          <mxGeometry width="50" height="50" relative="1" as="geometry">
            <mxPoint x="1534.5" y="616.6899999999999" as="sourcePoint" />
            <mxPoint x="1534.5" y="576.6899999999999" as="targetPoint" />
          </mxGeometry>
        </mxCell>
        <mxCell id="lC7uilPUr1mDyN76dGJ_-94" value="producto" style="rounded=0;whiteSpace=wrap;html=1;" parent="1" vertex="1">
          <mxGeometry x="1234.5" y="706.6899999999999" width="90" height="40" as="geometry" />
        </mxCell>
        <mxCell id="lC7uilPUr1mDyN76dGJ_-95" value="asignado" style="rhombus;whiteSpace=wrap;html=1;" parent="1" vertex="1">
          <mxGeometry x="1364.5" y="691.6899999999999" width="70" height="70" as="geometry" />
        </mxCell>
        <mxCell id="lC7uilPUr1mDyN76dGJ_-96" value="" style="endArrow=none;html=1;rounded=0;entryX=0;entryY=0.5;entryDx=0;entryDy=0;exitX=1;exitY=0.5;exitDx=0;exitDy=0;" parent="1" source="lC7uilPUr1mDyN76dGJ_-94" target="lC7uilPUr1mDyN76dGJ_-95" edge="1">
          <mxGeometry width="50" height="50" relative="1" as="geometry">
            <mxPoint x="1030.5" y="761.6899999999999" as="sourcePoint" />
            <mxPoint x="1030.5" y="731.6899999999999" as="targetPoint" />
          </mxGeometry>
        </mxCell>
        <mxCell id="lC7uilPUr1mDyN76dGJ_-97" value="" style="endArrow=none;html=1;rounded=0;entryX=0;entryY=0.5;entryDx=0;entryDy=0;exitX=1;exitY=0.5;exitDx=0;exitDy=0;" parent="1" source="lC7uilPUr1mDyN76dGJ_-95" target="lC7uilPUr1mDyN76dGJ_-87" edge="1">
          <mxGeometry width="50" height="50" relative="1" as="geometry">
            <mxPoint x="1519.5" y="776.6899999999999" as="sourcePoint" />
            <mxPoint x="1529.5" y="856.6899999999999" as="targetPoint" />
          </mxGeometry>
        </mxCell>
        <mxCell id="lC7uilPUr1mDyN76dGJ_-98" value="(1,N)" style="text;html=1;align=center;verticalAlign=middle;whiteSpace=wrap;rounded=0;" parent="1" vertex="1">
          <mxGeometry x="1321.5" y="706.0699999999999" width="40" height="20" as="geometry" />
        </mxCell>
        <mxCell id="lC7uilPUr1mDyN76dGJ_-99" value="(1,1)" style="text;html=1;align=center;verticalAlign=middle;whiteSpace=wrap;rounded=0;" parent="1" vertex="1">
          <mxGeometry x="1438.5" y="706.6899999999999" width="40" height="20" as="geometry" />
        </mxCell>
        <mxCell id="lC7uilPUr1mDyN76dGJ_-100" value="stock" style="ellipse;whiteSpace=wrap;html=1;" parent="1" vertex="1">
          <mxGeometry x="1135.5" y="676.6899999999999" width="70" height="40" as="geometry" />
        </mxCell>
        <mxCell id="lC7uilPUr1mDyN76dGJ_-101" value="" style="endArrow=none;html=1;rounded=0;exitX=1;exitY=0.5;exitDx=0;exitDy=0;entryX=0;entryY=0.5;entryDx=0;entryDy=0;" parent="1" source="lC7uilPUr1mDyN76dGJ_-100" target="lC7uilPUr1mDyN76dGJ_-94" edge="1">
          <mxGeometry width="50" height="50" relative="1" as="geometry">
            <mxPoint x="1445.5" y="741.6899999999999" as="sourcePoint" />
            <mxPoint x="1415.5" y="711.6899999999999" as="targetPoint" />
          </mxGeometry>
        </mxCell>
        <mxCell id="lC7uilPUr1mDyN76dGJ_-102" value="ID" style="ellipse;whiteSpace=wrap;html=1;fillColor=#99CCFF;" parent="1" vertex="1">
          <mxGeometry x="1244.5" y="645.6899999999999" width="70" height="40" as="geometry" />
        </mxCell>
        <mxCell id="lC7uilPUr1mDyN76dGJ_-103" value="" style="endArrow=none;html=1;rounded=0;exitX=0.5;exitY=1;exitDx=0;exitDy=0;entryX=0.5;entryY=0;entryDx=0;entryDy=0;" parent="1" source="lC7uilPUr1mDyN76dGJ_-102" target="lC7uilPUr1mDyN76dGJ_-94" edge="1">
          <mxGeometry width="50" height="50" relative="1" as="geometry">
            <mxPoint x="1345.5" y="881.6899999999999" as="sourcePoint" />
            <mxPoint x="1315.5" y="881.6899999999999" as="targetPoint" />
          </mxGeometry>
        </mxCell>
        <mxCell id="lC7uilPUr1mDyN76dGJ_-104" value="nombre" style="ellipse;whiteSpace=wrap;html=1;" parent="1" vertex="1">
          <mxGeometry x="1135.5" y="736.6899999999999" width="70" height="40" as="geometry" />
        </mxCell>
        <mxCell id="lC7uilPUr1mDyN76dGJ_-105" value="" style="endArrow=none;html=1;rounded=0;exitX=1;exitY=0.5;exitDx=0;exitDy=0;entryX=0;entryY=0.5;entryDx=0;entryDy=0;" parent="1" source="lC7uilPUr1mDyN76dGJ_-104" target="lC7uilPUr1mDyN76dGJ_-94" edge="1">
          <mxGeometry width="50" height="50" relative="1" as="geometry">
            <mxPoint x="1445.5" y="791.6899999999999" as="sourcePoint" />
            <mxPoint x="1305.5" y="921.6899999999999" as="targetPoint" />
          </mxGeometry>
        </mxCell>
        <mxCell id="lC7uilPUr1mDyN76dGJ_-108" value="" style="endArrow=none;html=1;rounded=0;entryX=0.5;entryY=1;entryDx=0;entryDy=0;exitX=0;exitY=0.5;exitDx=0;exitDy=0;" parent="1" source="lC7uilPUr1mDyN76dGJ_-114" target="lC7uilPUr1mDyN76dGJ_-58" edge="1">
          <mxGeometry width="50" height="50" relative="1" as="geometry">
            <mxPoint x="1266" y="642.28" as="sourcePoint" />
            <mxPoint x="1295" y="592.28" as="targetPoint" />
            <Array as="points">
              <mxPoint x="1284" y="546" />
            </Array>
          </mxGeometry>
        </mxCell>
        <mxCell id="lC7uilPUr1mDyN76dGJ_-113" value="pedido" style="rounded=0;whiteSpace=wrap;html=1;" parent="1" vertex="1">
          <mxGeometry x="1449" y="525.38" width="90" height="40" as="geometry" />
        </mxCell>
        <mxCell id="lC7uilPUr1mDyN76dGJ_-114" value="realiza" style="rhombus;whiteSpace=wrap;html=1;" parent="1" vertex="1">
          <mxGeometry x="1339" y="511" width="70" height="70" as="geometry" />
        </mxCell>
        <mxCell id="lC7uilPUr1mDyN76dGJ_-115" value="" style="endArrow=none;html=1;rounded=0;entryX=0;entryY=0.5;entryDx=0;entryDy=0;exitX=1;exitY=0.5;exitDx=0;exitDy=0;" parent="1" source="lC7uilPUr1mDyN76dGJ_-114" target="lC7uilPUr1mDyN76dGJ_-113" edge="1">
          <mxGeometry width="50" height="50" relative="1" as="geometry">
            <mxPoint x="1261" y="666" as="sourcePoint" />
            <mxPoint x="1331" y="456" as="targetPoint" />
          </mxGeometry>
        </mxCell>
        <mxCell id="lC7uilPUr1mDyN76dGJ_-116" value="(0,N)" style="text;html=1;align=center;verticalAlign=middle;whiteSpace=wrap;rounded=0;" parent="1" vertex="1">
          <mxGeometry x="1413" y="525.38" width="40" height="20" as="geometry" />
        </mxCell>
        <mxCell id="lC7uilPUr1mDyN76dGJ_-117" value="(1,1)" style="text;html=1;align=center;verticalAlign=middle;whiteSpace=wrap;rounded=0;" parent="1" vertex="1">
          <mxGeometry x="1282" y="410" width="40" height="20" as="geometry" />
        </mxCell>
        <mxCell id="lC7uilPUr1mDyN76dGJ_-118" value="ID" style="ellipse;whiteSpace=wrap;html=1;fillColor=#99CCFF;" parent="1" vertex="1">
          <mxGeometry x="1570" y="551" width="70" height="40" as="geometry" />
        </mxCell>
        <mxCell id="lC7uilPUr1mDyN76dGJ_-119" value="" style="endArrow=none;html=1;rounded=0;exitX=1;exitY=0.5;exitDx=0;exitDy=0;entryX=0;entryY=0.5;entryDx=0;entryDy=0;" parent="1" source="lC7uilPUr1mDyN76dGJ_-113" target="lC7uilPUr1mDyN76dGJ_-118" edge="1">
          <mxGeometry width="50" height="50" relative="1" as="geometry">
            <mxPoint x="1226" y="556" as="sourcePoint" />
            <mxPoint x="1196" y="556" as="targetPoint" />
          </mxGeometry>
        </mxCell>
        <mxCell id="lC7uilPUr1mDyN76dGJ_-121" value="pedido" style="rounded=0;whiteSpace=wrap;html=1;" parent="1" vertex="1">
          <mxGeometry x="1240" y="915" width="90" height="40" as="geometry" />
        </mxCell>
        <mxCell id="lC7uilPUr1mDyN76dGJ_-122" value="producto" style="rounded=0;whiteSpace=wrap;html=1;" parent="1" vertex="1">
          <mxGeometry x="1480" y="915" width="90" height="40" as="geometry" />
        </mxCell>
        <mxCell id="lC7uilPUr1mDyN76dGJ_-123" value="tiene" style="rhombus;whiteSpace=wrap;html=1;" parent="1" vertex="1">
          <mxGeometry x="1370" y="900" width="70" height="70" as="geometry" />
        </mxCell>
        <mxCell id="lC7uilPUr1mDyN76dGJ_-124" value="" style="endArrow=none;html=1;rounded=0;entryX=0;entryY=0.5;entryDx=0;entryDy=0;exitX=1;exitY=0.5;exitDx=0;exitDy=0;" parent="1" source="lC7uilPUr1mDyN76dGJ_-121" target="lC7uilPUr1mDyN76dGJ_-123" edge="1">
          <mxGeometry width="50" height="50" relative="1" as="geometry">
            <mxPoint x="1310" y="1005" as="sourcePoint" />
            <mxPoint x="1360" y="955" as="targetPoint" />
          </mxGeometry>
        </mxCell>
        <mxCell id="lC7uilPUr1mDyN76dGJ_-125" value="" style="endArrow=none;html=1;rounded=0;entryX=0;entryY=0.5;entryDx=0;entryDy=0;exitX=1;exitY=0.5;exitDx=0;exitDy=0;" parent="1" source="lC7uilPUr1mDyN76dGJ_-123" target="lC7uilPUr1mDyN76dGJ_-122" edge="1">
          <mxGeometry width="50" height="50" relative="1" as="geometry">
            <mxPoint x="1340" y="945" as="sourcePoint" />
            <mxPoint x="1380" y="945" as="targetPoint" />
          </mxGeometry>
        </mxCell>
        <mxCell id="lC7uilPUr1mDyN76dGJ_-126" value="(1,N)" style="text;html=1;align=center;verticalAlign=middle;whiteSpace=wrap;rounded=0;" parent="1" vertex="1">
          <mxGeometry x="1444" y="914" width="40" height="20" as="geometry" />
        </mxCell>
        <mxCell id="lC7uilPUr1mDyN76dGJ_-127" value="(0,1)" style="text;html=1;align=center;verticalAlign=middle;whiteSpace=wrap;rounded=0;" parent="1" vertex="1">
          <mxGeometry x="1326" y="915" width="40" height="20" as="geometry" />
        </mxCell>
        <mxCell id="lC7uilPUr1mDyN76dGJ_-128" value="stock" style="ellipse;whiteSpace=wrap;html=1;" parent="1" vertex="1">
          <mxGeometry x="1600" y="875" width="70" height="40" as="geometry" />
        </mxCell>
        <mxCell id="lC7uilPUr1mDyN76dGJ_-129" value="" style="endArrow=none;html=1;rounded=0;exitX=0;exitY=0.5;exitDx=0;exitDy=0;entryX=1;entryY=0.5;entryDx=0;entryDy=0;" parent="1" source="lC7uilPUr1mDyN76dGJ_-128" target="lC7uilPUr1mDyN76dGJ_-122" edge="1">
          <mxGeometry width="50" height="50" relative="1" as="geometry">
            <mxPoint x="1710" y="805" as="sourcePoint" />
            <mxPoint x="1680" y="775" as="targetPoint" />
          </mxGeometry>
        </mxCell>
        <mxCell id="lC7uilPUr1mDyN76dGJ_-130" value="ID" style="ellipse;whiteSpace=wrap;html=1;fillColor=#99CCFF;" parent="1" vertex="1">
          <mxGeometry x="1139.5" y="875" width="70" height="40" as="geometry" />
        </mxCell>
        <mxCell id="lC7uilPUr1mDyN76dGJ_-131" value="" style="endArrow=none;html=1;rounded=0;exitX=0;exitY=0.5;exitDx=0;exitDy=0;entryX=1;entryY=0.5;entryDx=0;entryDy=0;" parent="1" source="lC7uilPUr1mDyN76dGJ_-121" target="lC7uilPUr1mDyN76dGJ_-130" edge="1">
          <mxGeometry width="50" height="50" relative="1" as="geometry">
            <mxPoint x="1250" y="775" as="sourcePoint" />
            <mxPoint x="1220" y="775" as="targetPoint" />
          </mxGeometry>
        </mxCell>
        <mxCell id="lC7uilPUr1mDyN76dGJ_-132" value="ID" style="ellipse;whiteSpace=wrap;html=1;fillColor=#99CCFF;" parent="1" vertex="1">
          <mxGeometry x="1490" y="855" width="70" height="40" as="geometry" />
        </mxCell>
        <mxCell id="lC7uilPUr1mDyN76dGJ_-133" value="" style="endArrow=none;html=1;rounded=0;exitX=0.5;exitY=1;exitDx=0;exitDy=0;entryX=0.5;entryY=0;entryDx=0;entryDy=0;" parent="1" source="lC7uilPUr1mDyN76dGJ_-132" target="lC7uilPUr1mDyN76dGJ_-122" edge="1">
          <mxGeometry width="50" height="50" relative="1" as="geometry">
            <mxPoint x="1610" y="945" as="sourcePoint" />
            <mxPoint x="1580" y="945" as="targetPoint" />
          </mxGeometry>
        </mxCell>
        <mxCell id="lC7uilPUr1mDyN76dGJ_-134" value="nombre" style="ellipse;whiteSpace=wrap;html=1;" parent="1" vertex="1">
          <mxGeometry x="1600" y="955" width="70" height="40" as="geometry" />
        </mxCell>
        <mxCell id="lC7uilPUr1mDyN76dGJ_-135" value="" style="endArrow=none;html=1;rounded=0;exitX=0;exitY=0.5;exitDx=0;exitDy=0;entryX=1;entryY=0.5;entryDx=0;entryDy=0;" parent="1" source="lC7uilPUr1mDyN76dGJ_-134" target="lC7uilPUr1mDyN76dGJ_-122" edge="1">
          <mxGeometry width="50" height="50" relative="1" as="geometry">
            <mxPoint x="1710" y="855" as="sourcePoint" />
            <mxPoint x="1570" y="985" as="targetPoint" />
          </mxGeometry>
        </mxCell>
        <mxCell id="lC7uilPUr1mDyN76dGJ_-136" value="pedido" style="rounded=0;whiteSpace=wrap;html=1;" parent="1" vertex="1">
          <mxGeometry x="1279" y="1105" width="90" height="40" as="geometry" />
        </mxCell>
        <mxCell id="lC7uilPUr1mDyN76dGJ_-138" value="cliente+" style="rounded=0;whiteSpace=wrap;html=1;" parent="1" vertex="1">
          <mxGeometry x="1523" y="1095" width="90" height="40" as="geometry" />
        </mxCell>
        <mxCell id="lC7uilPUr1mDyN76dGJ_-142" value="realiza" style="rhombus;whiteSpace=wrap;html=1;" parent="1" vertex="1">
          <mxGeometry x="1414" y="1080" width="70" height="70" as="geometry" />
        </mxCell>
        <mxCell id="lC7uilPUr1mDyN76dGJ_-144" value="" style="endArrow=none;html=1;rounded=0;exitX=0;exitY=0.5;exitDx=0;exitDy=0;entryX=1;entryY=0.25;entryDx=0;entryDy=0;" parent="1" source="lC7uilPUr1mDyN76dGJ_-142" target="lC7uilPUr1mDyN76dGJ_-136" edge="1">
          <mxGeometry width="50" height="50" relative="1" as="geometry">
            <mxPoint x="1424.5" y="1045" as="sourcePoint" />
            <mxPoint x="1440.5" y="1115" as="targetPoint" />
            <Array as="points">
              <mxPoint x="1380" y="1115" />
            </Array>
          </mxGeometry>
        </mxCell>
        <mxCell id="lC7uilPUr1mDyN76dGJ_-145" value="(1,N)" style="text;html=1;align=center;verticalAlign=middle;whiteSpace=wrap;rounded=0;" parent="1" vertex="1">
          <mxGeometry x="1366.5" y="1096" width="40" height="20" as="geometry" />
        </mxCell>
        <mxCell id="lC7uilPUr1mDyN76dGJ_-147" value="(1,1)" style="text;html=1;align=center;verticalAlign=middle;whiteSpace=wrap;rounded=0;" parent="1" vertex="1">
          <mxGeometry x="1488" y="1095" width="40" height="20" as="geometry" />
        </mxCell>
        <mxCell id="lC7uilPUr1mDyN76dGJ_-150" value="fecha ingreso" style="ellipse;whiteSpace=wrap;html=1;" parent="1" vertex="1">
          <mxGeometry x="1645" y="1035" width="70" height="40" as="geometry" />
        </mxCell>
        <mxCell id="lC7uilPUr1mDyN76dGJ_-151" value="bonificacion" style="ellipse;whiteSpace=wrap;html=1;align=center;dashed=1;" parent="1" vertex="1">
          <mxGeometry x="1645" y="1095" width="70" height="40" as="geometry" />
        </mxCell>
        <mxCell id="lC7uilPUr1mDyN76dGJ_-152" value="num compras" style="ellipse;whiteSpace=wrap;html=1;" parent="1" vertex="1">
          <mxGeometry x="1645" y="1155" width="70" height="40" as="geometry" />
        </mxCell>
        <mxCell id="lC7uilPUr1mDyN76dGJ_-153" value="" style="endArrow=none;html=1;rounded=0;exitX=1;exitY=0.5;exitDx=0;exitDy=0;entryX=0;entryY=0;entryDx=0;entryDy=0;" parent="1" source="lC7uilPUr1mDyN76dGJ_-138" target="lC7uilPUr1mDyN76dGJ_-152" edge="1">
          <mxGeometry width="50" height="50" relative="1" as="geometry">
            <mxPoint x="1578" y="1065" as="sourcePoint" />
            <mxPoint x="1623" y="1115" as="targetPoint" />
          </mxGeometry>
        </mxCell>
        <mxCell id="lC7uilPUr1mDyN76dGJ_-154" value="" style="endArrow=none;html=1;rounded=0;exitX=1;exitY=0.5;exitDx=0;exitDy=0;entryX=0;entryY=0.5;entryDx=0;entryDy=0;" parent="1" source="lC7uilPUr1mDyN76dGJ_-138" target="lC7uilPUr1mDyN76dGJ_-151" edge="1">
          <mxGeometry width="50" height="50" relative="1" as="geometry">
            <mxPoint x="1588" y="1075" as="sourcePoint" />
            <mxPoint x="1588" y="1115" as="targetPoint" />
          </mxGeometry>
        </mxCell>
        <mxCell id="lC7uilPUr1mDyN76dGJ_-155" value="" style="endArrow=none;html=1;rounded=0;exitX=1;exitY=0.5;exitDx=0;exitDy=0;entryX=0;entryY=1;entryDx=0;entryDy=0;" parent="1" source="lC7uilPUr1mDyN76dGJ_-138" target="lC7uilPUr1mDyN76dGJ_-150" edge="1">
          <mxGeometry width="50" height="50" relative="1" as="geometry">
            <mxPoint x="1598" y="1085" as="sourcePoint" />
            <mxPoint x="1598" y="1125" as="targetPoint" />
          </mxGeometry>
        </mxCell>
        <mxCell id="lC7uilPUr1mDyN76dGJ_-156" value="ID" style="ellipse;whiteSpace=wrap;html=1;fillColor=#99CCFF;" parent="1" vertex="1">
          <mxGeometry x="1533" y="1035" width="70" height="40" as="geometry" />
        </mxCell>
        <mxCell id="lC7uilPUr1mDyN76dGJ_-157" value="" style="endArrow=none;html=1;rounded=0;exitX=0.5;exitY=1;exitDx=0;exitDy=0;entryX=0.5;entryY=0;entryDx=0;entryDy=0;" parent="1" source="lC7uilPUr1mDyN76dGJ_-156" target="lC7uilPUr1mDyN76dGJ_-138" edge="1">
          <mxGeometry width="50" height="50" relative="1" as="geometry">
            <mxPoint x="1623" y="1125" as="sourcePoint" />
            <mxPoint x="1665" y="1079" as="targetPoint" />
          </mxGeometry>
        </mxCell>
        <mxCell id="lC7uilPUr1mDyN76dGJ_-160" value="ID" style="ellipse;whiteSpace=wrap;html=1;fillColor=#99CCFF;" parent="1" vertex="1">
          <mxGeometry x="1180" y="1075" width="70" height="40" as="geometry" />
        </mxCell>
        <mxCell id="lC7uilPUr1mDyN76dGJ_-161" value="" style="endArrow=none;html=1;rounded=0;exitX=0;exitY=0.5;exitDx=0;exitDy=0;entryX=1;entryY=0.5;entryDx=0;entryDy=0;" parent="1" source="lC7uilPUr1mDyN76dGJ_-136" target="lC7uilPUr1mDyN76dGJ_-160" edge="1">
          <mxGeometry width="50" height="50" relative="1" as="geometry">
            <mxPoint x="1290" y="925" as="sourcePoint" />
            <mxPoint x="1260" y="925" as="targetPoint" />
          </mxGeometry>
        </mxCell>
        <mxCell id="lC7uilPUr1mDyN76dGJ_-162" value="" style="endArrow=none;html=1;rounded=0;exitX=1;exitY=0.5;exitDx=0;exitDy=0;entryX=0;entryY=0.5;entryDx=0;entryDy=0;" parent="1" source="lC7uilPUr1mDyN76dGJ_-142" target="lC7uilPUr1mDyN76dGJ_-138" edge="1">
          <mxGeometry width="50" height="50" relative="1" as="geometry">
            <mxPoint x="1639" y="1140" as="sourcePoint" />
            <mxPoint x="1639" y="1120" as="targetPoint" />
          </mxGeometry>
        </mxCell>
        <mxCell id="lC7uilPUr1mDyN76dGJ_-163" value="georref" style="ellipse;whiteSpace=wrap;html=1;fillColor=none;" parent="1" vertex="1">
          <mxGeometry x="306" y="78.72" width="70" height="40" as="geometry" />
        </mxCell>
        <mxCell id="lC7uilPUr1mDyN76dGJ_-164" value="latitud" style="ellipse;whiteSpace=wrap;html=1;" parent="1" vertex="1">
          <mxGeometry x="193" y="48.72" width="70" height="40" as="geometry" />
        </mxCell>
        <mxCell id="lC7uilPUr1mDyN76dGJ_-165" value="longitud" style="ellipse;whiteSpace=wrap;html=1;" parent="1" vertex="1">
          <mxGeometry x="193" y="108.72" width="70" height="40" as="geometry" />
        </mxCell>
        <mxCell id="lC7uilPUr1mDyN76dGJ_-166" value="" style="endArrow=none;html=1;rounded=0;entryX=1;entryY=0.5;entryDx=0;entryDy=0;exitX=0;exitY=0.5;exitDx=0;exitDy=0;" parent="1" source="lC7uilPUr1mDyN76dGJ_-163" target="lC7uilPUr1mDyN76dGJ_-165" edge="1">
          <mxGeometry width="50" height="50" relative="1" as="geometry">
            <mxPoint x="456" y="148.72" as="sourcePoint" />
            <mxPoint x="456" y="108.72" as="targetPoint" />
          </mxGeometry>
        </mxCell>
        <mxCell id="lC7uilPUr1mDyN76dGJ_-167" value="" style="endArrow=none;html=1;rounded=0;exitX=1;exitY=0.5;exitDx=0;exitDy=0;entryX=0;entryY=0.5;entryDx=0;entryDy=0;" parent="1" source="lC7uilPUr1mDyN76dGJ_-164" target="lC7uilPUr1mDyN76dGJ_-163" edge="1">
          <mxGeometry width="50" height="50" relative="1" as="geometry">
            <mxPoint x="466" y="158.72" as="sourcePoint" />
            <mxPoint x="616" y="288.72" as="targetPoint" />
          </mxGeometry>
        </mxCell>
        <mxCell id="lC7uilPUr1mDyN76dGJ_-168" value="&lt;span style=&quot;color: rgba(0, 0, 0, 0); font-family: monospace; font-size: 0px; text-align: start; background-color: rgb(251, 251, 251);&quot;&gt;%3CmxGraphModel%3E%3Croot%3E%3CmxCell%20id%3D%220%22%2F%3E%3CmxCell%20id%3D%221%22%20parent%3D%220%22%2F%3E%3CmxCell%20id%3D%222%22%20value%3D%22longitud%22%20style%3D%22ellipse%3BwhiteSpace%3Dwrap%3Bhtml%3D1%3B%22%20vertex%3D%221%22%20parent%3D%221%22%3E%3CmxGeometry%20x%3D%22570%22%20y%3D%22220%22%20width%3D%2270%22%20height%3D%2240%22%20as%3D%22geometry%22%2F%3E%3C%2FmxCell%3E%3C%2Froot%3E%3C%2FmxGraphModel%3E&lt;/span&gt;" style="endArrow=none;html=1;rounded=0;entryX=0.5;entryY=0;entryDx=0;entryDy=0;exitX=0.5;exitY=1;exitDx=0;exitDy=0;" parent="1" source="0w6hp5Dj4LU8r-eOPLkV-75" target="0w6hp5Dj4LU8r-eOPLkV-17" edge="1">
          <mxGeometry width="50" height="50" relative="1" as="geometry">
            <mxPoint x="366" y="227.72" as="sourcePoint" />
            <mxPoint x="341" y="243.72" as="targetPoint" />
          </mxGeometry>
        </mxCell>
        <mxCell id="lC7uilPUr1mDyN76dGJ_-169" value="fecha inicio" style="ellipse;whiteSpace=wrap;html=1;" parent="1" vertex="1">
          <mxGeometry x="296" y="348.72" width="70" height="40" as="geometry" />
        </mxCell>
        <mxCell id="lC7uilPUr1mDyN76dGJ_-170" value="fecha fin" style="ellipse;whiteSpace=wrap;html=1;" parent="1" vertex="1">
          <mxGeometry x="346" y="308.72" width="70" height="40" as="geometry" />
        </mxCell>
        <mxCell id="lC7uilPUr1mDyN76dGJ_-171" value="&lt;span style=&quot;color: rgba(0, 0, 0, 0); font-family: monospace; font-size: 0px; text-align: start; background-color: rgb(251, 251, 251);&quot;&gt;%3CmxGraphModel%3E%3Croot%3E%3CmxCell%20id%3D%220%22%2F%3E%3CmxCell%20id%3D%221%22%20parent%3D%220%22%2F%3E%3CmxCell%20id%3D%222%22%20value%3D%22longitud%22%20style%3D%22ellipse%3BwhiteSpace%3Dwrap%3Bhtml%3D1%3B%22%20vertex%3D%221%22%20parent%3D%221%22%3E%3CmxGeometry%20x%3D%22570%22%20y%3D%22220%22%20width%3D%2270%22%20height%3D%2240%22%20as%3D%22geometry%22%2F%3E%3C%2FmxCell%3E%3C%2Froot%3E%3C%2FmxGraphModel%3E&lt;/span&gt;" style="endArrow=none;html=1;rounded=0;entryX=0.5;entryY=1;entryDx=0;entryDy=0;exitX=0.5;exitY=0;exitDx=0;exitDy=0;" parent="1" source="lC7uilPUr1mDyN76dGJ_-170" target="0w6hp5Dj4LU8r-eOPLkV-17" edge="1">
          <mxGeometry width="50" height="50" relative="1" as="geometry">
            <mxPoint x="291" y="323.72" as="sourcePoint" />
            <mxPoint x="341" y="313.72" as="targetPoint" />
          </mxGeometry>
        </mxCell>
        <mxCell id="lC7uilPUr1mDyN76dGJ_-172" value="georref" style="ellipse;whiteSpace=wrap;html=1;fillColor=none;" parent="1" vertex="1">
          <mxGeometry x="930" y="195" width="70" height="40" as="geometry" />
        </mxCell>
        <mxCell id="lC7uilPUr1mDyN76dGJ_-173" value="latitud" style="ellipse;whiteSpace=wrap;html=1;" parent="1" vertex="1">
          <mxGeometry x="1030" y="225" width="70" height="40" as="geometry" />
        </mxCell>
        <mxCell id="lC7uilPUr1mDyN76dGJ_-174" value="longitud" style="ellipse;whiteSpace=wrap;html=1;" parent="1" vertex="1">
          <mxGeometry x="1030" y="165" width="70" height="40" as="geometry" />
        </mxCell>
        <mxCell id="lC7uilPUr1mDyN76dGJ_-175" value="" style="endArrow=none;html=1;rounded=0;entryX=0;entryY=0.5;entryDx=0;entryDy=0;exitX=1;exitY=0.5;exitDx=0;exitDy=0;" parent="1" source="lC7uilPUr1mDyN76dGJ_-172" target="lC7uilPUr1mDyN76dGJ_-174" edge="1">
          <mxGeometry width="50" height="50" relative="1" as="geometry">
            <mxPoint x="850" y="85" as="sourcePoint" />
            <mxPoint x="850" y="45" as="targetPoint" />
          </mxGeometry>
        </mxCell>
        <mxCell id="lC7uilPUr1mDyN76dGJ_-176" value="" style="endArrow=none;html=1;rounded=0;exitX=0;exitY=0.5;exitDx=0;exitDy=0;entryX=1;entryY=0.5;entryDx=0;entryDy=0;" parent="1" source="lC7uilPUr1mDyN76dGJ_-173" target="lC7uilPUr1mDyN76dGJ_-172" edge="1">
          <mxGeometry width="50" height="50" relative="1" as="geometry">
            <mxPoint x="860" y="95" as="sourcePoint" />
            <mxPoint x="1010" y="225" as="targetPoint" />
          </mxGeometry>
        </mxCell>
        <mxCell id="lC7uilPUr1mDyN76dGJ_-177" value="" style="endArrow=none;html=1;rounded=0;entryX=1;entryY=0.5;entryDx=0;entryDy=0;exitX=0;exitY=0.5;exitDx=0;exitDy=0;" parent="1" source="lC7uilPUr1mDyN76dGJ_-172" target="JG99IvdZPkkhDdZt2j7j-4" edge="1">
          <mxGeometry width="50" height="50" relative="1" as="geometry">
            <mxPoint x="870" y="105" as="sourcePoint" />
            <mxPoint x="900" y="215" as="targetPoint" />
          </mxGeometry>
        </mxCell>
        <mxCell id="lC7uilPUr1mDyN76dGJ_-178" value="&lt;span style=&quot;color: rgba(0, 0, 0, 0); font-family: monospace; font-size: 0px; text-align: start; background-color: rgb(251, 251, 251);&quot;&gt;%3CmxGraphModel%3E%3Croot%3E%3CmxCell%20id%3D%220%22%2F%3E%3CmxCell%20id%3D%221%22%20parent%3D%220%22%2F%3E%3CmxCell%20id%3D%222%22%20value%3D%22longitud%22%20style%3D%22ellipse%3BwhiteSpace%3Dwrap%3Bhtml%3D1%3B%22%20vertex%3D%221%22%20parent%3D%221%22%3E%3CmxGeometry%20x%3D%22570%22%20y%3D%22220%22%20width%3D%2270%22%20height%3D%2240%22%20as%3D%22geometry%22%2F%3E%3C%2FmxCell%3E%3C%2Froot%3E%3C%2FmxGraphModel%3E&lt;/span&gt;" style="endArrow=none;html=1;rounded=0;entryX=0.5;entryY=1;entryDx=0;entryDy=0;exitX=0.5;exitY=0;exitDx=0;exitDy=0;" parent="1" source="lC7uilPUr1mDyN76dGJ_-179" target="lC7uilPUr1mDyN76dGJ_-57" edge="1">
          <mxGeometry width="50" height="50" relative="1" as="geometry">
            <mxPoint x="1454" y="462.5" as="sourcePoint" />
            <mxPoint x="1479" y="437.5" as="targetPoint" />
          </mxGeometry>
        </mxCell>
        <mxCell id="lC7uilPUr1mDyN76dGJ_-179" value="fecha inicio" style="ellipse;whiteSpace=wrap;html=1;" parent="1" vertex="1">
          <mxGeometry x="1400" y="447.5" width="70" height="40" as="geometry" />
        </mxCell>
        <mxCell id="lC7uilPUr1mDyN76dGJ_-180" value="fecha fin" style="ellipse;whiteSpace=wrap;html=1;" parent="1" vertex="1">
          <mxGeometry x="1480" y="447.5" width="70" height="40" as="geometry" />
        </mxCell>
        <mxCell id="lC7uilPUr1mDyN76dGJ_-181" value="&lt;span style=&quot;color: rgba(0, 0, 0, 0); font-family: monospace; font-size: 0px; text-align: start; background-color: rgb(251, 251, 251);&quot;&gt;%3CmxGraphModel%3E%3Croot%3E%3CmxCell%20id%3D%220%22%2F%3E%3CmxCell%20id%3D%221%22%20parent%3D%220%22%2F%3E%3CmxCell%20id%3D%222%22%20value%3D%22longitud%22%20style%3D%22ellipse%3BwhiteSpace%3Dwrap%3Bhtml%3D1%3B%22%20vertex%3D%221%22%20parent%3D%221%22%3E%3CmxGeometry%20x%3D%22570%22%20y%3D%22220%22%20width%3D%2270%22%20height%3D%2240%22%20as%3D%22geometry%22%2F%3E%3C%2FmxCell%3E%3C%2Froot%3E%3C%2FmxGraphModel%3E&lt;/span&gt;" style="endArrow=none;html=1;rounded=0;entryX=0.5;entryY=1;entryDx=0;entryDy=0;exitX=0.5;exitY=0;exitDx=0;exitDy=0;" parent="1" source="lC7uilPUr1mDyN76dGJ_-180" target="lC7uilPUr1mDyN76dGJ_-57" edge="1">
          <mxGeometry width="50" height="50" relative="1" as="geometry">
            <mxPoint x="1439" y="457.5" as="sourcePoint" />
            <mxPoint x="1479" y="437.5" as="targetPoint" />
          </mxGeometry>
        </mxCell>
        <mxCell id="lC7uilPUr1mDyN76dGJ_-182" value="fecha" style="ellipse;whiteSpace=wrap;html=1;" parent="1" vertex="1">
          <mxGeometry x="20" y="437.31" width="70" height="40" as="geometry" />
        </mxCell>
        <mxCell id="lC7uilPUr1mDyN76dGJ_-183" value="" style="endArrow=none;html=1;rounded=0;exitX=0;exitY=0.5;exitDx=0;exitDy=0;entryX=1;entryY=0.5;entryDx=0;entryDy=0;" parent="1" source="0w6hp5Dj4LU8r-eOPLkV-37" target="lC7uilPUr1mDyN76dGJ_-182" edge="1">
          <mxGeometry width="50" height="50" relative="1" as="geometry">
            <mxPoint x="120" y="496.31" as="sourcePoint" />
            <mxPoint x="90" y="526.31" as="targetPoint" />
          </mxGeometry>
        </mxCell>
        <mxCell id="lC7uilPUr1mDyN76dGJ_-184" value="fecha" style="ellipse;whiteSpace=wrap;html=1;" parent="1" vertex="1">
          <mxGeometry x="930" y="810" width="70" height="40" as="geometry" />
        </mxCell>
        <mxCell id="lC7uilPUr1mDyN76dGJ_-185" value="" style="endArrow=none;html=1;rounded=0;exitX=0;exitY=0.5;exitDx=0;exitDy=0;entryX=1;entryY=0.5;entryDx=0;entryDy=0;" parent="1" source="lC7uilPUr1mDyN76dGJ_-184" target="JG99IvdZPkkhDdZt2j7j-32" edge="1">
          <mxGeometry width="50" height="50" relative="1" as="geometry">
            <mxPoint x="910" y="810" as="sourcePoint" />
            <mxPoint x="940" y="780" as="targetPoint" />
          </mxGeometry>
        </mxCell>
        <mxCell id="lC7uilPUr1mDyN76dGJ_-186" value="georref" style="ellipse;whiteSpace=wrap;html=1;fillColor=none;" parent="1" vertex="1">
          <mxGeometry x="1249.5" y="50" width="70" height="40" as="geometry" />
        </mxCell>
        <mxCell id="lC7uilPUr1mDyN76dGJ_-187" value="latitud" style="ellipse;whiteSpace=wrap;html=1;" parent="1" vertex="1">
          <mxGeometry x="1139.5" y="20" width="70" height="40" as="geometry" />
        </mxCell>
        <mxCell id="lC7uilPUr1mDyN76dGJ_-188" value="longitud" style="ellipse;whiteSpace=wrap;html=1;" parent="1" vertex="1">
          <mxGeometry x="1139.5" y="80" width="70" height="40" as="geometry" />
        </mxCell>
        <mxCell id="lC7uilPUr1mDyN76dGJ_-189" value="" style="endArrow=none;html=1;rounded=0;entryX=1;entryY=0.5;entryDx=0;entryDy=0;exitX=0;exitY=0.5;exitDx=0;exitDy=0;" parent="1" source="lC7uilPUr1mDyN76dGJ_-186" target="lC7uilPUr1mDyN76dGJ_-188" edge="1">
          <mxGeometry width="50" height="50" relative="1" as="geometry">
            <mxPoint x="1402.5" y="120" as="sourcePoint" />
            <mxPoint x="1402.5" y="80" as="targetPoint" />
          </mxGeometry>
        </mxCell>
        <mxCell id="lC7uilPUr1mDyN76dGJ_-190" value="" style="endArrow=none;html=1;rounded=0;exitX=1;exitY=0.5;exitDx=0;exitDy=0;entryX=0;entryY=0.5;entryDx=0;entryDy=0;" parent="1" source="lC7uilPUr1mDyN76dGJ_-187" target="lC7uilPUr1mDyN76dGJ_-186" edge="1">
          <mxGeometry width="50" height="50" relative="1" as="geometry">
            <mxPoint x="1412.5" y="130" as="sourcePoint" />
            <mxPoint x="1562.5" y="260" as="targetPoint" />
          </mxGeometry>
        </mxCell>
        <mxCell id="lC7uilPUr1mDyN76dGJ_-191" value="georref" style="ellipse;whiteSpace=wrap;html=1;fillColor=none;" parent="1" vertex="1">
          <mxGeometry x="1248.5" y="191" width="70" height="40" as="geometry" />
        </mxCell>
        <mxCell id="lC7uilPUr1mDyN76dGJ_-192" value="latitud" style="ellipse;whiteSpace=wrap;html=1;" parent="1" vertex="1">
          <mxGeometry x="1135.5" y="161" width="70" height="40" as="geometry" />
        </mxCell>
        <mxCell id="lC7uilPUr1mDyN76dGJ_-193" value="longitud" style="ellipse;whiteSpace=wrap;html=1;" parent="1" vertex="1">
          <mxGeometry x="1135.5" y="221" width="70" height="40" as="geometry" />
        </mxCell>
        <mxCell id="lC7uilPUr1mDyN76dGJ_-194" value="" style="endArrow=none;html=1;rounded=0;entryX=1;entryY=0.5;entryDx=0;entryDy=0;exitX=0;exitY=0.5;exitDx=0;exitDy=0;" parent="1" source="lC7uilPUr1mDyN76dGJ_-191" target="lC7uilPUr1mDyN76dGJ_-193" edge="1">
          <mxGeometry width="50" height="50" relative="1" as="geometry">
            <mxPoint x="1398.5" y="261" as="sourcePoint" />
            <mxPoint x="1398.5" y="221" as="targetPoint" />
          </mxGeometry>
        </mxCell>
        <mxCell id="lC7uilPUr1mDyN76dGJ_-195" value="" style="endArrow=none;html=1;rounded=0;exitX=1;exitY=0.5;exitDx=0;exitDy=0;entryX=0;entryY=0.5;entryDx=0;entryDy=0;" parent="1" source="lC7uilPUr1mDyN76dGJ_-192" target="lC7uilPUr1mDyN76dGJ_-191" edge="1">
          <mxGeometry width="50" height="50" relative="1" as="geometry">
            <mxPoint x="1408.5" y="271" as="sourcePoint" />
            <mxPoint x="1558.5" y="401" as="targetPoint" />
          </mxGeometry>
        </mxCell>
        <mxCell id="lC7uilPUr1mDyN76dGJ_-196" value="fecha" style="ellipse;whiteSpace=wrap;html=1;" parent="1" vertex="1">
          <mxGeometry x="1570" y="491" width="70" height="40" as="geometry" />
        </mxCell>
        <mxCell id="lC7uilPUr1mDyN76dGJ_-197" value="" style="endArrow=none;html=1;rounded=0;exitX=0;exitY=0.5;exitDx=0;exitDy=0;entryX=1;entryY=0.5;entryDx=0;entryDy=0;" parent="1" source="lC7uilPUr1mDyN76dGJ_-196" target="lC7uilPUr1mDyN76dGJ_-113" edge="1">
          <mxGeometry width="50" height="50" relative="1" as="geometry">
            <mxPoint x="1549" y="555" as="sourcePoint" />
            <mxPoint x="1573" y="581" as="targetPoint" />
          </mxGeometry>
        </mxCell>
        <mxCell id="lC7uilPUr1mDyN76dGJ_-198" value="fecha" style="ellipse;whiteSpace=wrap;html=1;" parent="1" vertex="1">
          <mxGeometry x="1140" y="940" width="70" height="40" as="geometry" />
        </mxCell>
        <mxCell id="lC7uilPUr1mDyN76dGJ_-199" value="" style="endArrow=none;html=1;rounded=0;exitX=1;exitY=0.5;exitDx=0;exitDy=0;entryX=0;entryY=0.5;entryDx=0;entryDy=0;" parent="1" source="lC7uilPUr1mDyN76dGJ_-198" target="lC7uilPUr1mDyN76dGJ_-121" edge="1">
          <mxGeometry width="50" height="50" relative="1" as="geometry">
            <mxPoint x="1110" y="1034" as="sourcePoint" />
            <mxPoint x="1100" y="1024" as="targetPoint" />
          </mxGeometry>
        </mxCell>
        <mxCell id="lC7uilPUr1mDyN76dGJ_-200" value="fecha" style="ellipse;whiteSpace=wrap;html=1;" parent="1" vertex="1">
          <mxGeometry x="1180" y="1135" width="70" height="40" as="geometry" />
        </mxCell>
        <mxCell id="lC7uilPUr1mDyN76dGJ_-201" value="" style="endArrow=none;html=1;rounded=0;exitX=1;exitY=0.5;exitDx=0;exitDy=0;entryX=0;entryY=0.5;entryDx=0;entryDy=0;" parent="1" source="lC7uilPUr1mDyN76dGJ_-200" target="lC7uilPUr1mDyN76dGJ_-136" edge="1">
          <mxGeometry width="50" height="50" relative="1" as="geometry">
            <mxPoint x="1170" y="1234" as="sourcePoint" />
            <mxPoint x="1160" y="1224" as="targetPoint" />
          </mxGeometry>
        </mxCell>
        <mxCell id="OXBQtS-Lc9JdUTygq4V7-1" value="trabaja" style="rhombus;whiteSpace=wrap;html=1;" parent="1" vertex="1">
          <mxGeometry x="910" y="1120" width="70" height="60" as="geometry" />
        </mxCell>
        <mxCell id="OXBQtS-Lc9JdUTygq4V7-2" value="&lt;span style=&quot;color: rgba(0, 0, 0, 0); font-family: monospace; font-size: 0px; text-align: start; background-color: rgb(251, 251, 251);&quot;&gt;%3CmxGraphModel%3E%3Croot%3E%3CmxCell%20id%3D%220%22%2F%3E%3CmxCell%20id%3D%221%22%20parent%3D%220%22%2F%3E%3CmxCell%20id%3D%222%22%20value%3D%22longitud%22%20style%3D%22ellipse%3BwhiteSpace%3Dwrap%3Bhtml%3D1%3B%22%20vertex%3D%221%22%20parent%3D%221%22%3E%3CmxGeometry%20x%3D%22570%22%20y%3D%22220%22%20width%3D%2270%22%20height%3D%2240%22%20as%3D%22geometry%22%2F%3E%3C%2FmxCell%3E%3C%2Froot%3E%3C%2FmxGraphModel%3E&lt;/span&gt;" style="endArrow=none;html=1;rounded=0;entryX=0;entryY=0.5;entryDx=0;entryDy=0;exitX=1;exitY=0.5;exitDx=0;exitDy=0;" parent="1" source="OXBQtS-Lc9JdUTygq4V7-5" target="OXBQtS-Lc9JdUTygq4V7-1" edge="1">
          <mxGeometry width="50" height="50" relative="1" as="geometry">
            <mxPoint x="860" y="1241" as="sourcePoint" />
            <mxPoint x="1170" y="1201" as="targetPoint" />
          </mxGeometry>
        </mxCell>
        <mxCell id="OXBQtS-Lc9JdUTygq4V7-3" value="tarea" style="ellipse;whiteSpace=wrap;html=1;" parent="1" vertex="1">
          <mxGeometry x="1000" y="1130" width="70" height="40" as="geometry" />
        </mxCell>
        <mxCell id="OXBQtS-Lc9JdUTygq4V7-4" value="&lt;span style=&quot;color: rgba(0, 0, 0, 0); font-family: monospace; font-size: 0px; text-align: start; background-color: rgb(251, 251, 251);&quot;&gt;%3CmxGraphModel%3E%3Croot%3E%3CmxCell%20id%3D%220%22%2F%3E%3CmxCell%20id%3D%221%22%20parent%3D%220%22%2F%3E%3CmxCell%20id%3D%222%22%20value%3D%22longitud%22%20style%3D%22ellipse%3BwhiteSpace%3Dwrap%3Bhtml%3D1%3B%22%20vertex%3D%221%22%20parent%3D%221%22%3E%3CmxGeometry%20x%3D%22570%22%20y%3D%22220%22%20width%3D%2270%22%20height%3D%2240%22%20as%3D%22geometry%22%2F%3E%3C%2FmxCell%3E%3C%2Froot%3E%3C%2FmxGraphModel%3E&lt;/span&gt;" style="endArrow=none;html=1;rounded=0;entryX=1;entryY=0.5;entryDx=0;entryDy=0;exitX=0;exitY=0.5;exitDx=0;exitDy=0;" parent="1" source="OXBQtS-Lc9JdUTygq4V7-3" target="OXBQtS-Lc9JdUTygq4V7-1" edge="1">
          <mxGeometry width="50" height="50" relative="1" as="geometry">
            <mxPoint x="920" y="1140" as="sourcePoint" />
            <mxPoint x="895" y="1156" as="targetPoint" />
          </mxGeometry>
        </mxCell>
        <mxCell id="OXBQtS-Lc9JdUTygq4V7-5" value="fecha inicio" style="ellipse;whiteSpace=wrap;html=1;" parent="1" vertex="1">
          <mxGeometry x="810" y="1100" width="70" height="40" as="geometry" />
        </mxCell>
        <mxCell id="OXBQtS-Lc9JdUTygq4V7-6" value="fecha fin" style="ellipse;whiteSpace=wrap;html=1;" parent="1" vertex="1">
          <mxGeometry x="810" y="1160" width="70" height="40" as="geometry" />
        </mxCell>
        <mxCell id="OXBQtS-Lc9JdUTygq4V7-7" value="&lt;span style=&quot;color: rgba(0, 0, 0, 0); font-family: monospace; font-size: 0px; text-align: start; background-color: rgb(251, 251, 251);&quot;&gt;%3CmxGraphModel%3E%3Croot%3E%3CmxCell%20id%3D%220%22%2F%3E%3CmxCell%20id%3D%221%22%20parent%3D%220%22%2F%3E%3CmxCell%20id%3D%222%22%20value%3D%22longitud%22%20style%3D%22ellipse%3BwhiteSpace%3Dwrap%3Bhtml%3D1%3B%22%20vertex%3D%221%22%20parent%3D%221%22%3E%3CmxGeometry%20x%3D%22570%22%20y%3D%22220%22%20width%3D%2270%22%20height%3D%2240%22%20as%3D%22geometry%22%2F%3E%3C%2FmxCell%3E%3C%2Froot%3E%3C%2FmxGraphModel%3E&lt;/span&gt;" style="endArrow=none;html=1;rounded=0;entryX=0;entryY=0.5;entryDx=0;entryDy=0;exitX=1;exitY=0.5;exitDx=0;exitDy=0;" parent="1" source="OXBQtS-Lc9JdUTygq4V7-6" target="OXBQtS-Lc9JdUTygq4V7-1" edge="1">
          <mxGeometry x="-0.0032" width="50" height="50" relative="1" as="geometry">
            <mxPoint x="845" y="1236" as="sourcePoint" />
            <mxPoint x="895" y="1226" as="targetPoint" />
            <mxPoint as="offset" />
          </mxGeometry>
        </mxCell>
        <mxCell id="S8Vx_NDWFL8849KrCsTm-1" value="ID" style="ellipse;whiteSpace=wrap;html=1;fillColor=#99CCFF;" vertex="1" parent="1">
          <mxGeometry x="416" y="23.72" width="70" height="40" as="geometry" />
        </mxCell>
        <mxCell id="S8Vx_NDWFL8849KrCsTm-2" value="" style="endArrow=none;html=1;rounded=0;exitX=0.5;exitY=1;exitDx=0;exitDy=0;entryX=0.5;entryY=0;entryDx=0;entryDy=0;" edge="1" parent="1" source="S8Vx_NDWFL8849KrCsTm-1" target="0w6hp5Dj4LU8r-eOPLkV-1">
          <mxGeometry width="50" height="50" relative="1" as="geometry">
            <mxPoint x="536" y="-12.53" as="sourcePoint" />
            <mxPoint x="451" y="-2.5300000000000002" as="targetPoint" />
          </mxGeometry>
        </mxCell>
        <mxCell id="S8Vx_NDWFL8849KrCsTm-3" value="ID" style="ellipse;whiteSpace=wrap;html=1;fillColor=#99CCFF;" vertex="1" parent="1">
          <mxGeometry x="506" y="193.72" width="70" height="40" as="geometry" />
        </mxCell>
        <mxCell id="S8Vx_NDWFL8849KrCsTm-4" value="" style="endArrow=none;html=1;rounded=0;exitX=0;exitY=1;exitDx=0;exitDy=0;entryX=1;entryY=0.5;entryDx=0;entryDy=0;" edge="1" parent="1" source="S8Vx_NDWFL8849KrCsTm-3" target="0w6hp5Dj4LU8r-eOPLkV-2">
          <mxGeometry width="50" height="50" relative="1" as="geometry">
            <mxPoint x="626" y="162.47" as="sourcePoint" />
            <mxPoint x="541" y="172.47" as="targetPoint" />
          </mxGeometry>
        </mxCell>
        <mxCell id="S8Vx_NDWFL8849KrCsTm-5" value="ID" style="ellipse;whiteSpace=wrap;html=1;fillColor=#99CCFF;" vertex="1" parent="1">
          <mxGeometry x="930" y="246" width="70" height="40" as="geometry" />
        </mxCell>
        <mxCell id="S8Vx_NDWFL8849KrCsTm-6" value="" style="endArrow=none;html=1;rounded=0;exitX=0;exitY=0;exitDx=0;exitDy=0;entryX=1;entryY=0.5;entryDx=0;entryDy=0;" edge="1" parent="1" source="S8Vx_NDWFL8849KrCsTm-5" target="JG99IvdZPkkhDdZt2j7j-4">
          <mxGeometry width="50" height="50" relative="1" as="geometry">
            <mxPoint x="970" y="228.75" as="sourcePoint" />
            <mxPoint x="885" y="238.75" as="targetPoint" />
          </mxGeometry>
        </mxCell>
        <mxCell id="S8Vx_NDWFL8849KrCsTm-7" value="ID" style="ellipse;whiteSpace=wrap;html=1;fillColor=#99CCFF;" vertex="1" parent="1">
          <mxGeometry x="930" y="379" width="70" height="40" as="geometry" />
        </mxCell>
        <mxCell id="S8Vx_NDWFL8849KrCsTm-8" value="" style="endArrow=none;html=1;rounded=0;exitX=0;exitY=0;exitDx=0;exitDy=0;entryX=1;entryY=0.5;entryDx=0;entryDy=0;" edge="1" parent="1" source="S8Vx_NDWFL8849KrCsTm-7" target="JG99IvdZPkkhDdZt2j7j-7">
          <mxGeometry width="50" height="50" relative="1" as="geometry">
            <mxPoint x="1050" y="347.75" as="sourcePoint" />
            <mxPoint x="965" y="357.75" as="targetPoint" />
          </mxGeometry>
        </mxCell>
        <mxCell id="S8Vx_NDWFL8849KrCsTm-9" value="ID" style="ellipse;whiteSpace=wrap;html=1;fillColor=#99CCFF;" vertex="1" parent="1">
          <mxGeometry x="1485" y="651.6899999999999" width="70" height="40" as="geometry" />
        </mxCell>
        <mxCell id="S8Vx_NDWFL8849KrCsTm-10" value="" style="endArrow=none;html=1;rounded=0;exitX=0.5;exitY=1;exitDx=0;exitDy=0;entryX=0.5;entryY=0;entryDx=0;entryDy=0;" edge="1" parent="1" source="S8Vx_NDWFL8849KrCsTm-9" target="lC7uilPUr1mDyN76dGJ_-87">
          <mxGeometry width="50" height="50" relative="1" as="geometry">
            <mxPoint x="1355.5" y="891.6899999999999" as="sourcePoint" />
            <mxPoint x="1290" y="716.6899999999999" as="targetPoint" />
          </mxGeometry>
        </mxCell>
        <mxCell id="S8Vx_NDWFL8849KrCsTm-11" value="ID" style="ellipse;whiteSpace=wrap;html=1;fillColor=#99CCFF;" vertex="1" parent="1">
          <mxGeometry x="1559.5" y="312.5" width="70" height="40" as="geometry" />
        </mxCell>
        <mxCell id="S8Vx_NDWFL8849KrCsTm-12" value="" style="endArrow=none;html=1;rounded=0;exitX=0.5;exitY=1;exitDx=0;exitDy=0;entryX=0.5;entryY=0;entryDx=0;entryDy=0;" edge="1" parent="1" source="S8Vx_NDWFL8849KrCsTm-11" target="lC7uilPUr1mDyN76dGJ_-50">
          <mxGeometry width="50" height="50" relative="1" as="geometry">
            <mxPoint x="1690.5" y="527.5" as="sourcePoint" />
            <mxPoint x="1625" y="352.5" as="targetPoint" />
          </mxGeometry>
        </mxCell>
        <mxCell id="S8Vx_NDWFL8849KrCsTm-13" value="ID" style="ellipse;whiteSpace=wrap;html=1;fillColor=#99CCFF;" vertex="1" parent="1">
          <mxGeometry x="1348.5" y="140" width="70" height="40" as="geometry" />
        </mxCell>
        <mxCell id="S8Vx_NDWFL8849KrCsTm-14" value="" style="endArrow=none;html=1;rounded=0;exitX=0.5;exitY=1;exitDx=0;exitDy=0;entryX=0.5;entryY=0;entryDx=0;entryDy=0;" edge="1" parent="1" source="S8Vx_NDWFL8849KrCsTm-13" target="lC7uilPUr1mDyN76dGJ_-35">
          <mxGeometry width="50" height="50" relative="1" as="geometry">
            <mxPoint x="1455" y="351" as="sourcePoint" />
            <mxPoint x="1389.5" y="176" as="targetPoint" />
          </mxGeometry>
        </mxCell>
        <mxCell id="S8Vx_NDWFL8849KrCsTm-15" value="ID" style="ellipse;whiteSpace=wrap;html=1;fillColor=#99CCFF;" vertex="1" parent="1">
          <mxGeometry x="1348" width="70" height="40" as="geometry" />
        </mxCell>
        <mxCell id="S8Vx_NDWFL8849KrCsTm-16" value="" style="endArrow=none;html=1;rounded=0;exitX=0.5;exitY=1;exitDx=0;exitDy=0;entryX=0.5;entryY=0;entryDx=0;entryDy=0;" edge="1" parent="1" source="S8Vx_NDWFL8849KrCsTm-15" target="lC7uilPUr1mDyN76dGJ_-4">
          <mxGeometry width="50" height="50" relative="1" as="geometry">
            <mxPoint x="1455.5" y="216" as="sourcePoint" />
            <mxPoint x="1390" y="41" as="targetPoint" />
          </mxGeometry>
        </mxCell>
        <mxCell id="S8Vx_NDWFL8849KrCsTm-17" value="ID" style="ellipse;whiteSpace=wrap;html=1;fillColor=#99CCFF;" vertex="1" parent="1">
          <mxGeometry x="1583" y="140" width="70" height="40" as="geometry" />
        </mxCell>
        <mxCell id="S8Vx_NDWFL8849KrCsTm-18" value="" style="endArrow=none;html=1;rounded=0;exitX=0.5;exitY=0;exitDx=0;exitDy=0;entryX=0.5;entryY=1;entryDx=0;entryDy=0;" edge="1" parent="1" source="lC7uilPUr1mDyN76dGJ_-36" target="S8Vx_NDWFL8849KrCsTm-17">
          <mxGeometry width="50" height="50" relative="1" as="geometry">
            <mxPoint x="1394" y="190" as="sourcePoint" />
            <mxPoint x="1393" y="201" as="targetPoint" />
          </mxGeometry>
        </mxCell>
        <mxCell id="S8Vx_NDWFL8849KrCsTm-19" value="" style="endArrow=classic;html=1;rounded=0;" edge="1" parent="1">
          <mxGeometry width="50" height="50" relative="1" as="geometry">
            <mxPoint x="261" y="248.72" as="sourcePoint" />
            <mxPoint x="130" y="350" as="targetPoint" />
            <Array as="points">
              <mxPoint x="261" y="288.72" />
              <mxPoint x="241" y="318.72" />
              <mxPoint x="201" y="348.72" />
            </Array>
          </mxGeometry>
        </mxCell>
        <mxCell id="S8Vx_NDWFL8849KrCsTm-22" value="" style="endArrow=classic;html=1;rounded=0;" edge="1" parent="1">
          <mxGeometry width="50" height="50" relative="1" as="geometry">
            <mxPoint x="1389.5" y="362.75" as="sourcePoint" />
            <mxPoint x="1258.5" y="464.03" as="targetPoint" />
            <Array as="points">
              <mxPoint x="1389.5" y="402.75" />
              <mxPoint x="1369.5" y="432.75" />
              <mxPoint x="1329.5" y="462.75" />
            </Array>
          </mxGeometry>
        </mxCell>
      </root>
    </mxGraphModel>
  </diagram>
</mxfile>
